<?xml version="1.0" encoding="UTF-8" standalone="no"?>
<!-- Created with Inkscape (http://www.inkscape.org/) -->

<svg
   width="210mm"
   height="297mm"
   viewBox="0 0 210 297"
   version="1.1"
   id="svg1"
   xml:space="preserve"
   xmlns="http://www.w3.org/2000/svg"
   xmlns:svg="http://www.w3.org/2000/svg"><defs
     id="defs1" /><g
     id="layer1"><path
       style="fill:#000000"
       d="m 100.11432,244.51617 c -36.416217,-2.62726 -65.767711,-25.71675 -76.669669,-60.31256 -1.381375,-4.3836 -1.5254,-4.30014 7.678744,-4.44984 11.683091,-0.19003 13.693015,0.36541 13.693015,3.78405 0,2.98832 -1.230504,3.94268 -5.237758,4.06229 -2.9888,0.0892 -2.9888,0.0892 -2.172043,1.53643 0.449217,0.79597 1.421301,2.60129 2.160187,4.01183 7.075761,13.50765 17.88497,24.41885 30.963307,31.25545 7.617273,3.98187 13.509833,5.92438 24.689423,8.13899 2.82979,0.56056 16.180124,0.64356 19.314594,0.12008 7.9609,-1.32954 14.44922,-2.93589 17.59479,-4.35604 0.50932,-0.22995 1.75948,-0.73296 2.77812,-1.1178 8.68712,-3.282 21.04702,-12.33051 27.08695,-19.82996 2.9855,-3.70693 7.7946,-10.92452 8.66154,-12.99939 0.23349,-0.55882 0.77367,-1.52351 1.20041,-2.14375 1.0088,-1.46624 2.1965,-4.57539 1.74414,-4.56578 -0.85963,0.0183 -21.32359,-0.2733 -30.62325,-0.43632 -11.73581,-0.20572 -11.67635,-0.1913 -12.43717,-3.01678 -0.92866,-3.44875 0.88789,-4.62397 7.14551,-4.62281 22.55047,0.004 47.83132,0.34521 48.42503,0.65325 2.06429,1.07103 2.07486,1.9749 0.0922,7.8775 -6.21424,18.50021 -21.11452,36.21595 -38.12724,45.33151 -1.42162,0.76171 -3.06102,1.64246 -3.6431,1.9572 -11.70911,6.33134 -30.21235,10.14009 -44.31771,9.12245 z M 79.086189,217.55912 c -2.440227,-1.48074 -2.166973,-5.65439 0.464369,-7.09275 2.093157,-1.14417 45.689322,-0.63867 47.489412,0.55065 2.55658,1.68911 2.66012,4.80036 0.2131,6.4037 -0.92084,0.60336 -47.181577,0.73628 -48.166881,0.1384 z M 54.194352,203.56494 c -5.231874,-2.45743 -5.853356,-10.63932 -1.137523,-14.97564 2.706512,-2.48869 19.949942,-19.66208 22.054371,-21.96478 2.886509,-3.15846 5.741565,-5.67697 5.899339,-5.20392 0.782628,2.34648 6.858777,9.89405 8.736277,10.85188 1.01322,0.51691 1.09026,0.62462 0.82775,1.15731 -0.6203,1.25874 -29.176097,29.32745 -30.412323,29.89357 -1.707137,0.78177 -4.571009,0.8977 -5.967891,0.24158 z m 35.832844,-29.94099 c 0,-0.0728 0.0148,-0.3154 -0.058,-0.3154 -0.0728,0 0.37125,0.002 0.37125,0.0751 0,0.0728 0.0767,-0.14234 0.14946,-0.14234 0.0728,0 -0.4628,0.45549 -0.4628,0.3827 z m 39.694754,29.12138 c -14.50601,-0.16933 -13.49774,-0.034 -14.72435,-1.97702 -1.01054,-1.6008 -0.75088,-3.04112 0.83403,-4.6263 1.33597,-1.3362 29.20531,-2.15588 32.35838,-0.95171 3.46974,1.32511 4.00666,5.1273 0.97494,6.904 -1.48656,0.87118 -1.25307,0.86337 -19.443,0.65103 z m -37.148254,-3.02609 c -2.79107,-1.3055 -4.36562,-3.77385 -4.36562,-6.84378 0,-3.83961 -0.0212,-3.81198 12.946314,-16.90073 5.53605,-5.58781 10.06709,-10.28774 10.06899,-10.44427 0.0145,-1.198 -4.04375,-2.67813 -10.15922,-3.70526 -10.839164,-1.82052 -15.815824,-7.3636 -15.421574,-17.1768 0.23817,-5.92834 1.79675,-8.30071 11.10789,-16.90784 3.440954,-3.18077 3.633884,-2.1757 -1.4648,-7.63055 -7.53064,-8.05669 -6.26506,-7.96515 -13.289372,-0.96116 -9.105809,9.07947 -15.484062,8.96661 -15.484062,-0.27398 0,-2.97159 0.403491,-3.64685 5.005566,-8.37712 11.37126,-11.688 15.459718,-13.564936 22.387278,-10.27759 2.25735,1.07118 12.519034,11.15541 17.343784,17.04387 2.97811,3.63468 4.42509,4.86045 7.43376,6.29727 3.28217,1.56745 3.26503,1.53936 3.00291,4.92257 -0.30524,3.93979 -1.83616,6.09274 -7.98304,11.22668 -1.71968,1.43629 -6.82216,6.89727 -6.62691,7.09252 0.0804,0.0804 1.60309,0.55722 3.38368,1.05952 1.78058,0.5023 3.84256,1.19282 4.58217,1.53449 0.73962,0.34167 1.90077,0.86059 2.58033,1.15316 10.491,4.51662 12.65194,15.51526 4.7956,24.4084 -17.97292,20.34482 -25.656054,26.71932 -29.843674,24.7606 z m 83.740624,-27.43567 c -6.18463,-0.0967 -15.47984,-0.19267 -20.65602,-0.2133 -9.41123,-0.0375 -9.41123,-0.0375 -10.48069,-0.95291 -2.48684,-2.12865 -2.16631,-5.16216 0.70596,-6.68106 1.132,-0.59861 40.63175,-0.99103 43.98343,-0.43696 1.29486,0.21406 1.33315,0.40895 0.89849,4.5732 -0.4051,3.88099 -0.47485,4.00874 -2.14804,3.93406 -0.58209,-0.026 -6.11849,-0.12634 -12.30313,-0.22303 z M 20.64007,171.71223 c -2.09665,-7.63378 -1.52884,-7.88154 18.062906,-7.88154 20.495425,0 19.298518,-0.0981 20.887001,1.71113 1.683912,1.91787 1.033533,4.85101 -1.366823,6.16422 -1.519558,0.83133 -37.354833,0.83724 -37.583084,0.006 z m 6.347308,-15.74716 c -7.468212,-0.0883 -7.179287,0.23755 -6.343563,-7.15368 0.193717,-1.71326 45.621739,-2.17869 47.835411,-0.49009 2.558667,1.95176 1.558224,6.38391 -1.649313,7.30678 -0.998841,0.28738 -26.087936,0.49959 -39.842535,0.33699 z m 125.236402,-0.0572 c -6.27534,-0.25725 -9.02387,-5.2624 -4.15208,-7.7063 2.26255,-1.13499 42.451,-1.15869 42.63458,0.34942 0.43337,3.56024 0.44091,7.27936 0.0151,7.44276 -0.51283,0.1968 -33.39127,0.12345 -38.49758,-0.0859 z m -25.13111,-8.81984 c -5.17498,-1.57306 -5.65345,-2.90455 -2.30397,-6.41142 1.4905,-1.56053 2.72593,-3.0643 2.87721,-3.26923 0.37811,-0.51221 0.38975,-0.51553 0.76348,-0.96107 0.28179,-0.33594 1.44249,-1.5412 2.47675,-2.77813 12.16626,-14.55036 19.98171,-18.66803 23.92542,-12.60542 2.55394,3.92615 1.29259,6.2838 -8.58562,16.04778 -10.88957,10.76366 -12.98169,11.8535 -19.15327,9.97749 z m 36.87432,-7.09133 c -2.2036,-0.64918 -3.61655,-4.54873 -2.23358,-6.1644 1.37896,-1.61099 1.99559,-1.75162 7.68087,-1.75162 6.08571,0 5.86243,0.11392 4.77918,-2.43834 C 151.73793,76.734261 80.12352,67.612118 46.897532,113.42757 c -3.619602,4.99108 -8.166538,11.92086 -8.166538,12.44624 0,0.0991 -0.425855,1.23198 -0.946345,2.51755 -1.547419,3.82202 -2.122373,3.50796 7.031761,3.84106 9.322076,0.33923 9.537869,0.39261 10.168303,2.51551 0.717822,2.41717 -0.724777,4.97468 -2.835322,5.02661 -4.198728,0.1033 -28.632444,-0.0274 -29.035483,-0.15534 -2.313788,-0.73437 4.868761,-19.56764 10.534427,-27.62219 0.75817,-1.07785 1.378492,-2.06266 1.378492,-2.18848 0,-0.47714 1.553275,-2.59668 4.618929,-6.30283 44.17807,-53.408085 127.886334,-35.995121 148.178084,30.82395 1.75428,5.77672 2.584,5.26536 -8.86369,5.46273 -5.45703,0.0941 -10.87437,0.23409 -12.03854,0.31113 -1.16416,0.077 -2.49374,0.029 -2.95462,-0.1068 z m -99.835998,-0.13769 c -3.178223,-1.15401 -4.024527,-5.45772 -1.410096,-7.17076 2.622001,-1.718 7.164761,0.86 6.553924,3.71932 -0.50231,2.35131 -3.195955,4.15871 -5.143828,3.45144 z m 60.667138,-0.5193 c -141.889014,-131.0532207 -141.889014,-131.0532207 0,0 z m 1.77453,-1.57049 c -143.663544,-129.4827307 -143.663544,-129.4827307 0,0 z M 50.737768,124.81448 c -2.537041,-1.5367 -2.219825,-5.215 0.549529,-6.37211 2.425511,-1.01345 5.522715,1.22835 5.065342,3.66635 -0.495621,2.64189 -3.405362,4.04407 -5.614871,2.70576 z m 72.965682,-7.16308 c -10.57225,-2.29454 -11.4797,-17.835958 -1.23183,-21.09697 7.40047,-2.354933 14.19323,2.077227 14.61865,9.53842 0.44061,7.72761 -5.88258,13.18723 -13.38682,11.55855 z"
       id="path1" /></g></svg>
