<?xml version="1.0" encoding="UTF-8" standalone="no"?>
<svg
   data-name="Layer 1"
   width="1142.23"
   height="781.10999"
   viewBox="0 0 1142.23 781.11"
   version="1.1"
   id="svg157"
   xmlns="http://www.w3.org/2000/svg"
   xmlns:svg="http://www.w3.org/2000/svg">
  <defs
     id="defs3">
    <linearGradient
       id="d91c7811-87ec-4fc8-aa52-46c2543d8327-229"
       x1="380.12"
       y1="690.08002"
       x2="530.06"
       y2="690.08002"
       gradientTransform="matrix(-1,0,0,1,938.12,-59.45)"
       gradientUnits="userSpaceOnUse">
      <stop
         offset="0"
         stop-color="gray"
         stop-opacity="0.25"
         id="stop1" />
      <stop
         offset="0.54"
         stop-color="gray"
         stop-opacity="0.12"
         id="stop2" />
      <stop
         offset="1"
         stop-color="gray"
         stop-opacity="0.1"
         id="stop3" />
    </linearGradient>
  </defs>
  <title
     id="title3">friendship</title>
  <path
     d="m 1140.99,327.75 c -6.95,28.15 -42.63,42.26 -62.62,63.26 -37.67,39.58 -23,97.38 0.9,143.67 8,15.5 17.08,31.91 13.69,48.53 -4.13,20.33 -26.08,35.19 -49.13,43.07 -42,14.35 -92.3,10.93 -130.91,-8.92 -33.36,-17.15 -57.26,-45 -91.19,-61.42 -56.79,-27.39 -129.07,-17 -190.74,1.83 -43.62,13.35 -91.32,30.72 -134.67,16.78 -30.5,-9.82 -51.59,-33.72 -63.08,-59 -5.54,-12.23 -9.57,-25.47 -20.16,-35.16 -6.3,-5.77 -14.52,-9.86 -22.93,-13.3 -76.88,-31.5 -174,-14.63 -248.63,-49.57 -50.42,-23.59 -82.71,-68.09 -97,-114.5 -14.29,-46.41 -12.63,-95.07 -9,-142.87 2.58,-34 7.21,-70.22 33.47,-96.44 27.78,-27.73 75.45,-38 118.55,-32.77 43.1,5.23 82.15,24.06 116.52,46.18 43,27.66 82.78,62.09 135.51,73.29 35.91,7.63 73.68,3.45 110.72,2 61.92,-2.41 123.86,3 185.43,8.84 30,2.87 60.1,5.88 89.84,10.24 q 10,1.46 20,3.15 c 3.34,0.57 6.68,1.16 10,1.77 2.6,0.47 5.19,1 7.78,1.47 q 6.13,1.19 12.22,2.5 c 11.66,2.5 23.21,5.33 34.64,8.55 39.74,11.21 71.6,31.57 109.13,45.79 24.46,9.27 51.13,11.83 74.29,23.63 28.5,14.49 54.68,39.8 47.37,69.4 z"
     fill="#6c63ff"
     opacity="0.1"
     id="path3"
     style="opacity:0.486254;fill:#948fc3;fill-opacity:1" />
  <circle
     cx="939.95001"
     cy="375.51999"
     r="102.23"
     fill="#6c63ff"
     id="circle3"
     style="fill:#ff6600" />
  <circle
     cx="831.22998"
     cy="347.59"
     r="102.23"
     fill="#6c63ff"
     id="circle4"
     style="fill:#ff6600" />
  <circle
     cx="711.54999"
     cy="348.59"
     r="102.23"
     fill="#6c63ff"
     id="circle5"
     style="fill:#ff6600" />
  <circle
     cx="672.65002"
     cy="375.51999"
     r="102.23"
     fill="#6c63ff"
     id="circle6"
     style="fill:#ff6600" />
  <circle
     cx="606.82001"
     cy="384.5"
     r="102.23"
     fill="#6c63ff"
     id="circle7"
     style="fill:#ff6600" />
  <circle
     cx="579.89001"
     cy="303.70999"
     r="102.23"
     fill="#6c63ff"
     id="circle8"
     style="fill:#ff6600" />
  <circle
     cx="609.81"
     cy="209.95"
     r="102.23"
     fill="#6c63ff"
     id="circle9"
     style="fill:#ff6600" />
  <circle
     cx="666.65997"
     cy="209.95"
     r="102.23"
     fill="#6c63ff"
     id="circle10"
     style="fill:#ff6600" />
  <circle
     cx="699.58002"
     cy="168.06"
     r="102.23"
     fill="#6c63ff"
     id="circle11"
     style="fill:#ff6600" />
  <circle
     cx="783.35999"
     cy="213.94"
     r="102.23"
     fill="#6c63ff"
     id="circle12"
     style="fill:#ff6600" />
  <circle
     cx="978.84998"
     cy="303.70999"
     r="102.23"
     fill="#6c63ff"
     id="circle13"
     style="fill:#ff6600" />
  <circle
     cx="920"
     cy="252.84"
     r="102.23"
     fill="#6c63ff"
     id="circle14"
     style="fill:#ff6600" />
  <circle
     cx="882.09998"
     cy="201.97"
     r="102.23"
     fill="#6c63ff"
     id="circle15"
     style="fill:#ff6600" />
  <circle
     cx="810.28998"
     cy="125.17"
     r="102.23"
     fill="#6c63ff"
     id="circle16"
     style="fill:#ff6600" />
  <circle
     cx="943.94"
     cy="209.95"
     r="102.23"
     fill="#6c63ff"
     id="circle17"
     style="fill:#ff6600" />
  <g
     opacity="0.1"
     id="g32"
     style="fill:#ff6600">
    <circle
       cx="939.95001"
       cy="375.51999"
       r="102.23"
       id="circle18"
       style="fill:#ff6600" />
    <circle
       cx="831.22998"
       cy="347.59"
       r="102.23"
       id="circle19"
       style="fill:#ff6600" />
    <circle
       cx="711.54999"
       cy="348.59"
       r="102.23"
       id="circle20"
       style="fill:#ff6600" />
    <circle
       cx="672.65002"
       cy="375.51999"
       r="102.23"
       id="circle21"
       style="fill:#ff6600" />
    <circle
       cx="606.82001"
       cy="384.5"
       r="102.23"
       id="circle22"
       style="fill:#ff6600" />
    <circle
       cx="579.89001"
       cy="303.70999"
       r="102.23"
       id="circle23"
       style="fill:#ff6600" />
    <circle
       cx="609.81"
       cy="209.95"
       r="102.23"
       id="circle24"
       style="fill:#ff6600" />
    <circle
       cx="666.65997"
       cy="209.95"
       r="102.23"
       id="circle25"
       style="fill:#ff6600" />
    <circle
       cx="699.58002"
       cy="168.06"
       r="102.23"
       id="circle26"
       style="fill:#ff6600" />
    <circle
       cx="783.35999"
       cy="213.94"
       r="102.23"
       id="circle27"
       style="fill:#ff6600" />
    <circle
       cx="978.84998"
       cy="303.70999"
       r="102.23"
       id="circle28"
       style="fill:#ff6600" />
    <circle
       cx="920"
       cy="252.84"
       r="102.23"
       id="circle29"
       style="fill:#ff6600" />
    <circle
       cx="882.09998"
       cy="201.97"
       r="102.23"
       id="circle30"
       style="fill:#ff6600" />
    <circle
       cx="810.28998"
       cy="125.17"
       r="102.23"
       id="circle31"
       style="fill:#ff6600" />
    <circle
       cx="943.94"
       cy="209.95"
       r="102.23"
       id="circle32"
       style="fill:#ff6600" />
  </g>
  <path
     d="m 889.46,554.67 c 0,0 62.5,-52.53 31.58,-127.33 l -30.92,-11.58 -33.55,103.29 z"
     fill="#67647e"
     id="path32"
     style="fill:#464456;fill-opacity:1" />
  <path
     d="m 892.79,412.2 7.4,2.77 -32.94,101.41 28.74,31.12 c -2.38,2.37 -3.86,3.61 -3.86,3.61 l -32.9,-35.62 z"
     opacity="0.1"
     id="path33" />
  <ellipse
     cx="579.5"
     cy="687.94"
     rx="556.5"
     ry="93.160004"
     fill="#6c63ff"
     opacity="0.1"
     id="ellipse33"
     style="opacity:0.486254;fill:#948fc3;fill-opacity:1" />
  <path
     d="m 1007.84,543.65 c 0,0 -20.33,20.33 -8.85,50.5 11.48,30.17 -19.67,80.33 -19.67,80.33 l 1,-0.16 c 41.75,-7.37 62.5,-55.12 39.28,-90.6 -8.68,-13.17 -15.77,-28.65 -11.76,-40.07 z"
     fill="#6c63ff"
     id="path34"
     style="fill:#ff6600" />
  <path
     d="m 1007.84,543.65 c 0,0 -11.48,24.92 0,45.25 11.48,20.33 2,77.38 -28.53,85.58"
     fill="none"
     stroke="#535461"
     stroke-miterlimit="10"
     id="path35"
     style="fill:#ff6600" />
  <path
     d="m 1044.05,625.88 c 0,0 -23.2,-3.69 -25.31,17.1 -2.11,20.79 -44.62,23.67 -44.62,23.67 l 0.8,0.53 c 35.09,23 68.63,14.67 63.57,-15.91 -1.87,-11.37 -1.72,-22.79 5.56,-25.39 z"
     fill="#6c63ff"
     id="path36"
     style="fill:#ff6600" />
  <path
     d="m 1044.05,625.88 c 0,0 -18,4 -16.53,20.33 1.47,16.33 -26.74,36 -53.39,20.44"
     fill="none"
     stroke="#535461"
     stroke-miterlimit="10"
     id="path38"
     style="fill:#ff6600" />
  <path
     d="m 607.2,445.26 8.12,32.5 c 0,0 57.37,7.48 95.62,2.78 a 49.72,49.72 0 0 0 19.07,-6.88 c 3.23,-1.91 8.33,-2.74 15.3,2.48 11.94,9 70.54,81 61.05,155.7 a 25.82,25.82 0 0 1 -22.17,22.24 v 0 a 77.86,77.86 0 0 0 -32.67,12.36 l -29,19.31 297.35,-6.5 L 989,641.88 c 0,0 -21.12,-17.87 -37.37,-19.5 -4.74,-0.47 -8.65,-4.82 -11.81,-10.73 -18.51,-34.65 -40.65,-67.23 -64.65,-98.34 -17.48,-22.66 -32.15,-46.54 -30.78,-61.54 3.25,-35.75 0,-94.24 0,-94.24 l -61.74,-8.12 c 0,0 8.12,78 -66.62,97.49 -74.74,19.49 -108.83,-1.64 -108.83,-1.64 z"
     fill="#67647e"
     id="path39"
     style="fill:#373544;fill-opacity:1" />
  <g
     opacity="0.1"
     id="g41">
    <path
       d="m 686.45,519.34 c 0,0 34.12,21.12 108.87,1.62 74.75,-19.5 66.62,-97.49 66.62,-97.49 l 11.75,1.53 c -0.22,-5 -0.39,-8 -0.39,-8 l -61.74,-8.12 c 0,0 8.12,78 -66.62,97.49 -74.74,19.49 -108.87,-1.62 -108.87,-1.62 l 8.12,32.5 c 0,0 21.92,2.86 47.7,3.93 z"
       transform="translate(-28.88,-59.45)"
       id="path40" />
    <path
       d="m 830.77,740.51 a 77.86,77.86 0 0 1 32.67,-12.36 v 0 A 25.78,25.78 0 0 0 885.6,706 c 9.54,-74.7 -49.09,-146.83 -61,-155.79 -13,-9.75 -19.5,1.62 -19.5,1.62 a 104.61,104.61 0 0 1 -14,2.67 c 21.06,28 51.19,81.71 44.14,136.87 a 25.78,25.78 0 0 1 -22.16,22.15 v 0 a 77.86,77.86 0 0 0 -32.67,12.36 l -29,19.31 74.76,-1.63 z"
       transform="translate(-28.88,-59.45)"
       id="path41" />
  </g>
  <path
     d="m 656.96,602.91 c 0,0 -6.21,-21.08 1.16,-36.6 a 33.3,33.3 0 0 0 2.69,-20.89 56,56 0 0 0 -3,-9.81"
     fill="none"
     stroke="#535461"
     stroke-miterlimit="10"
     stroke-width="2"
     id="path42" />
  <path
     d="m 662.45,525.8 c 0,2.58 -4.68,10.08 -4.68,10.08 0,0 -4.65,-7.5 -4.65,-10.08 a 4.68,4.68 0 1 1 9.36,0 z"
     fill="#6c63ff"
     id="path43"
     style="fill:#ff6600" />
  <path
     d="m 670.19,540.11 c -1.4,2.17 -9.4,5.92 -9.4,5.92 0,0 0.15,-8.83 1.55,-11 a 4.68,4.68 0 1 1 7.85,5.09 z"
     fill="#6c63ff"
     id="path44"
     style="fill:#ff6600" />
  <path
     d="m 669.85,564.55 c -2.31,1.16 -11.1,0.36 -11.1,0.36 0,0 4.58,-7.55 6.89,-8.71 a 4.6801095,4.6801095 0 0 1 4.21,8.36 z"
     fill="#6c63ff"
     id="path45"
     style="fill:#ff6600" />
  <path
     d="m 665.43,583.02 c -2.08,1.54 -10.88,2.23 -10.88,2.23 0,0 3.24,-8.22 5.32,-9.75 a 4.68,4.68 0 0 1 5.56,7.52 z"
     fill="#6c63ff"
     id="path46"
     style="fill:#ff6600" />
  <path
     d="m 650.96,546.55 c 1.85,1.8 10.49,3.67 10.49,3.67 0,0 -2.11,-8.58 -4,-10.38 a 4.68,4.68 0 0 0 -6.52,6.71 z"
     fill="#6c63ff"
     id="path47"
     style="fill:#ff6600" />
  <path
     d="m 646.06,568.17 c 2.31,1.16 11.1,0.36 11.1,0.36 0,0 -4.58,-7.55 -6.89,-8.71 a 4.6801095,4.6801095 0 0 0 -4.21,8.36 z"
     fill="#6c63ff"
     id="path48"
     style="fill:#ff6600" />
  <path
     d="m 644.18,589.86 c 2.08,1.54 10.88,2.23 10.88,2.23 0,0 -3.24,-8.22 -5.32,-9.75 a 4.68,4.68 0 0 0 -5.56,7.52 z"
     fill="#6c63ff"
     id="path49"
     style="fill:#ff6600" />
  <path
     d="m 643.45,600.85 c 0,0 11.35,-2.27 14.37,-5.3 3.02,-3.03 16.64,-8.32 18.16,-4.54 1.52,3.78 20.43,16.64 7.56,18.91 -12.87,2.27 -30.26,3 -34,1.51 -3.74,-1.49 -6.09,-10.58 -6.09,-10.58 z"
     fill="#a8a8a8"
     id="path50" />
  <path
     d="m 683.55,608.55 c -12.86,2.27 -30.26,3 -34,1.51 -2.88,-1.15 -4.88,-6.69 -5.67,-9.26 l -0.38,0.08 c 0,0 2.27,9.08 6.05,10.59 3.78,1.51 21.18,0.76 34,-1.51 3.71,-0.66 4.77,-2.19 4.37,-4.14 -0.32,1.24 -1.61,2.22 -4.37,2.73 z"
     opacity="0.2"
     id="path51" />
  <path
     d="m 831.62,672.01 c 0,0 34.43,-6.89 43.62,-16.07 9.19,-9.18 50.5,-25.25 55.09,-13.77 4.59,11.48 62,50.5 23,57.39 -39,6.89 -91.82,9.18 -103.3,4.59 -11.48,-4.59 -18.41,-32.14 -18.41,-32.14 z"
     fill="#a8a8a8"
     id="path52" />
  <path
     d="m 953.29,695.29 c -39,6.89 -91.82,9.18 -103.3,4.59 -8.74,-3.5 -14.82,-20.3 -17.22,-28.11 l -1.15,0.24 c 0,0 6.89,27.55 18.36,32.14 11.47,4.59 64.28,2.3 103.3,-4.59 11.27,-2 14.49,-6.66 13.27,-12.56 -0.95,3.85 -4.88,6.82 -13.26,8.29 z"
     opacity="0.2"
     id="path53" />
  <path
     d="m 1064.66,476.35 a 21.82,21.82 0 0 1 -3.71,11.51 21.82,21.82 0 0 1 -3.77,-11.49 c 0,-6.35 1.64,-11.5 3.71,-11.51 2.07,-0.01 3.75,5.14 3.77,11.49 z"
     fill="#6c63ff"
     id="path54"
     style="fill:#ff6600" />
  <path
     d="m 782.37,470.77 a 21.82,21.82 0 0 1 -3.74,11.5 21.82,21.82 0 0 1 -3.74,-11.5 c 0,-6.35 1.67,-11.5 3.74,-11.5 2.07,0 3.74,5.15 3.74,11.5 z"
     fill="#6c63ff"
     id="path55"
     style="fill:#ff6600" />
  <path
     d="m 1090.03,584.09 a 21.82,21.82 0 0 1 3.74,11.5 21.82,21.82 0 0 1 -9.79,-7.1 c -3.74,-5.14 -5.41,-10.29 -3.74,-11.5 1.67,-1.21 6.06,1.97 9.79,7.1 z"
     fill="#6c63ff"
     id="path56"
     style="fill:#ff6600" />
  <path
     d="m 970.57,523.88 a 21.82,21.82 0 0 1 -3.74,11.5 21.82,21.82 0 0 1 -3.74,-11.5 c 0,-6.35 1.67,-11.5 3.74,-11.5 2.07,0 3.74,5.17 3.74,11.5 z"
     fill="#6c63ff"
     id="path57"
     style="fill:#ff6600" />
  <path
     d="m 900.69,485.68 a 21.82,21.82 0 0 1 -3.74,11.5 21.82,21.82 0 0 1 -3.74,-11.5 c 0,-6.35 1.67,-11.5 3.74,-11.5 2.07,0 3.74,5.15 3.74,11.5 z"
     fill="#6c63ff"
     id="path58"
     style="fill:#ff6600" />
  <path
     d="m 857.34,508.97 a 21.82,21.82 0 0 1 2.47,11.84 21.82,21.82 0 0 1 -9,-8.12 c -3.16,-5.51 -4.26,-10.81 -2.47,-11.84 1.79,-1.03 5.85,2.61 9,8.12 z"
     fill="#6c63ff"
     id="path59"
     style="fill:#ff6600" />
  <path
     d="m 824.95,614.61 a 21.82,21.82 0 0 1 -10.95,5.14 21.82,21.82 0 0 1 5.83,-10.59 c 4.63,-4.34 9.54,-6.64 10.95,-5.14 1.41,1.5 -1.2,6.25 -5.83,10.59 z"
     fill="#6c63ff"
     id="path60" />
  <path
     d="m 824.95,614.61 a 21.82,21.82 0 0 1 -10.95,5.14 21.82,21.82 0 0 1 5.83,-10.59 c 4.63,-4.34 9.54,-6.64 10.95,-5.14 1.41,1.5 -1.2,6.25 -5.83,10.59 z"
     opacity="0.1"
     id="path61" />
  <path
     d="m 892.96,608.09 a 21.82,21.82 0 0 1 -10.95,5.14 21.82,21.82 0 0 1 5.83,-10.59 c 4.63,-4.34 9.54,-6.64 10.95,-5.14 1.41,1.5 -1.2,6.24 -5.83,10.59 z"
     fill="#6c63ff"
     id="path62"
     style="fill:#ff6600" />
  <path
     d="m 906,677.03 a 21.82,21.82 0 0 1 -10.95,5.14 21.82,21.82 0 0 1 5.84,-10.62 c 4.63,-4.34 9.54,-6.64 10.95,-5.14 1.41,1.5 -1.2,6.27 -5.84,10.62 z"
     fill="#6c63ff"
     id="path64"
     style="fill:#ff6600" />
  <path
     d="m 90.47,566.82 c 15.33,22.63 10.44,103.65 10.44,103.65 0,0 -77.05,-25.51 -92.38,-48.13 a 49.490309,49.490309 0 0 1 81.95,-55.51 z"
     fill="#6c63ff"
     id="path66"
     style="fill:#ff6600" />
  <path
     d="m 90.47,566.82 c 15.33,22.63 10.44,103.65 10.44,103.65 0,0 -77.05,-25.51 -92.38,-48.13 a 49.490309,49.490309 0 0 1 81.95,-55.51 z"
     opacity="0.1"
     id="path67"
     style="fill:#ff6600" />
  <path
     d="m 22.04,553.66 c 0,0 57.74,44.58 79.17,116.89"
     fill="none"
     stroke="#535461"
     stroke-miterlimit="10"
     id="path68"
     style="fill:#ff6600" />
  <path
     d="m 115.75,609.12 c 0,0 -41,-7 -13,60.91 0,0 28.49,-10.86 30.71,-37.88 a 21.56,21.56 0 0 0 -17.15,-22.92 z"
     fill="#6c63ff"
     id="path69"
     style="fill:#ff6600" />
  <path
     d="m 116.35,609.05 c 0,0 7.81,37.56 -13.56,61"
     fill="none"
     stroke="#535461"
     stroke-miterlimit="10"
     id="path70"
     style="fill:#ff6600" />
  <path
     d="m 1008.63,672.14 c 0,0 17.11,-3.4 21.67,-7.93 4.56,-4.53 25.1,-12.46 27.38,-6.8 2.28,5.66 30.8,24.92 11.41,28.31 -19.39,3.39 -45.63,4.53 -51.33,2.27 -5.7,-2.26 -9.13,-15.85 -9.13,-15.85 z"
     fill="#a8a8a8"
     id="path71" />
  <path
     d="m 1069.12,683.63 c -19.39,3.4 -45.63,4.53 -51.33,2.27 -4.34,-1.73 -7.36,-10 -8.56,-13.87 l -0.57,0.12 c 0,0 3.42,13.59 9.13,15.86 5.71,2.27 31.94,1.13 51.33,-2.27 5.6,-1 7.2,-3.28 6.6,-6.2 -0.51,1.89 -2.46,3.36 -6.6,4.09 z"
     opacity="0.2"
     id="path72" />
  <circle
     cx="939.95001"
     cy="352.57999"
     r="102.23"
     fill="#6c63ff"
     id="circle72"
     style="fill:#aa4400" />
  <circle
     cx="831.22998"
     cy="324.64999"
     r="102.23"
     fill="#6c63ff"
     id="circle73"
     style="fill:#d45500" />
  <circle
     cx="711.54999"
     cy="325.64999"
     r="102.23"
     fill="#6c63ff"
     id="circle74"
     style="fill:#ff6600" />
  <circle
     cx="672.65002"
     cy="352.57999"
     r="102.23"
     fill="#6c63ff"
     id="circle75"
     style="fill:#ff6600" />
  <circle
     cx="606.82001"
     cy="361.56"
     r="102.23"
     fill="#6c63ff"
     id="circle76"
     style="fill:#ff6600" />
  <circle
     cx="579.89001"
     cy="280.76999"
     r="102.23"
     fill="#6c63ff"
     id="circle77"
     style="fill:#ff6600" />
  <circle
     cx="609.81"
     cy="187.00999"
     r="102.23"
     fill="#6c63ff"
     id="circle78"
     style="fill:#ff6600" />
  <circle
     cx="666.65997"
     cy="187.00999"
     r="102.23"
     fill="#6c63ff"
     id="circle79"
     style="fill:#ff6600" />
  <circle
     cx="699.58002"
     cy="145.12"
     r="102.23"
     fill="#6c63ff"
     id="circle80"
     style="fill:#ff7f2a" />
  <circle
     cx="783.35999"
     cy="191"
     r="102.23"
     fill="#6c63ff"
     id="circle81"
     style="fill:#ff6600" />
  <circle
     cx="978.84998"
     cy="280.76999"
     r="102.23"
     fill="#6c63ff"
     id="circle82"
     style="fill:#d45500" />
  <circle
     cx="920"
     cy="229.89999"
     r="102.23"
     fill="#6c63ff"
     id="circle83"
     style="fill:#ff6600" />
  <circle
     cx="882.09998"
     cy="179.03"
     r="102.23"
     fill="#6c63ff"
     id="circle84"
     style="fill:#ff6600" />
  <circle
     cx="810.28998"
     cy="102.23"
     r="102.23"
     fill="#6c63ff"
     id="circle85"
     style="fill:#ff6600" />
  <circle
     cx="943.94"
     cy="187.00999"
     r="102.23"
     fill="#6c63ff"
     id="circle86"
     style="fill:#ff6600" />
  <path
     d="m 1041.73,203.02 c 0,0 -95.21,-45.15 -152.82,34.87"
     opacity="0.1"
     id="path86"
     style="fill:#ff6600" />
  <path
     d="m 791.65,111.55 c 0,0 -105.32,-3.18 -126,93.22"
     opacity="0.1"
     id="path87"
     style="fill:#ff6600" />
  <path
     d="m 660.73,320.71 c 0,0 -95.21,-45.16 -152.82,34.84"
     opacity="0.1"
     id="path88"
     style="fill:#ff6600" />
  <path
     d="m 244.04,575.55 c 0,0 5.49,7.18 -2.54,18 -8.03,10.82 -14.65,20 -12,26.76 0,0 12.11,-20.14 22,-20.42 9.89,-0.28 3.38,-12.23 -7.46,-24.34 z"
     fill="#6c63ff"
     id="path89"
     style="fill:#ff6600" />
  <path
     d="m 244.04,575.55 a 8.9,8.9 0 0 1 1.12,2.25 c 9.62,11.3 14.75,21.85 5.5,22.12 -8.61,0.25 -18.95,15.65 -21.42,19.54 a 8.35,8.35 0 0 0 0.29,0.89 c 0,0 12.11,-20.14 22,-20.42 9.89,-0.28 3.35,-12.27 -7.49,-24.38 z"
     opacity="0.1"
     id="path90"
     style="fill:#ff6600" />
  <path
     d="m 254.25,584.71 c 0,2.53 -0.28,4.58 -0.63,4.58 -0.35,0 -0.63,-2 -0.63,-4.58 0,-2.58 0.35,-1.34 0.7,-1.34 0.35,0 0.56,-1.19 0.56,1.34 z"
     fill="#ffd037"
     id="path91"
     style="fill:#ff6600" />
  <path
     d="m 257.75,587.72 c -2.22,1.21 -4.16,1.94 -4.32,1.63 -0.16,-0.31 1.5,-1.54 3.72,-2.75 2.22,-1.21 1.34,-0.33 1.51,0 0.17,0.33 1.31,-0.05 -0.91,1.12 z"
     fill="#ffd037"
     id="path92"
     style="fill:#ff6600" />
  <path
     d="m 215.02,575.55 c 0,0 -5.49,7.18 2.54,18 8.03,10.82 14.65,20 12,26.76 0,0 -12.11,-20.14 -22,-20.42 -9.89,-0.28 -3.39,-12.23 7.46,-24.34 z"
     fill="#6c63ff"
     id="path93"
     style="fill:#ff6600" />
  <path
     d="m 215.02,575.55 a 8.9,8.9 0 0 0 -1.12,2.25 c -9.62,11.3 -14.75,21.85 -5.5,22.12 8.61,0.25 18.95,15.65 21.42,19.54 a 8.35,8.35 0 0 1 -0.29,0.89 c 0,0 -12.11,-20.14 -22,-20.42 -9.89,-0.28 -3.36,-12.27 7.49,-24.38 z"
     opacity="0.1"
     id="path94"
     style="fill:#ff6600" />
  <path
     d="m 204.81,584.71 c 0,2.53 0.28,4.58 0.63,4.58 0.35,0 0.63,-2 0.63,-4.58 0,-2.58 -0.35,-1.34 -0.7,-1.34 -0.35,0 -0.56,-1.19 -0.56,1.34 z"
     fill="#ffd037"
     id="path95"
     style="fill:#ff6600" />
  <path
     d="m 201.3,587.72 c 2.22,1.21 4.16,1.94 4.32,1.63 0.16,-0.31 -1.5,-1.54 -3.72,-2.75 -2.22,-1.21 -1.34,-0.33 -1.51,0 -0.17,0.33 -1.27,-0.05 0.91,1.12 z"
     fill="#ffd037"
     id="path96"
     style="fill:#ff6600" />
  <path
     d="m 206.56,619.4 c 0,0 15.36,-0.47 20,-3.77 4.64,-3.3 23.63,-7.23 24.77,-1.95 1.14,5.28 23.08,26.29 5.74,26.43 -17.34,0.14 -40.29,-2.7 -44.91,-5.52 -4.62,-2.82 -5.6,-15.19 -5.6,-15.19 z"
     fill="#a8a8a8"
     id="path97" />
  <path
     d="m 257.37,638.28 c -17.34,0.14 -40.29,-2.7 -44.91,-5.52 -3.52,-2.14 -4.92,-9.83 -5.39,-13.38 h -0.51 c 0,0 1,12.39 5.59,15.2 4.59,2.81 27.57,5.66 44.91,5.52 5,0 6.73,-1.82 6.64,-4.46 -0.69,1.61 -2.58,2.61 -6.33,2.64 z"
     opacity="0.2"
     id="path98" />
  <path
     d="m 119.56,718.29 a 11.67,11.67 0 0 0 3.83,-5.78 c 0.5,-2.3 -0.48,-5.05 -2.68,-5.89 -2.46,-0.94 -5.09,0.76 -7.08,2.49 -1.99,1.73 -4.28,3.69 -6.89,3.32 a 10.48,10.48 0 0 0 3.24,-9.81 4.1,4.1 0 0 0 -0.9,-2 c -1.37,-1.46 -3.84,-0.83 -5.48,0.32 -5.2,3.66 -6.65,10.72 -6.68,17.08 -0.52,-2.29 -0.08,-4.68 -0.1,-7 -0.02,-2.32 -0.66,-5 -2.64,-6.22 a 8,8 0 0 0 -4,-0.95 c -2.34,-0.09 -4.94,0.15 -6.54,1.86 -2,2.12 -1.47,5.69 0.26,8 1.73,2.31 4.35,3.8 6.77,5.42 a 15,15 0 0 1 4.84,4.61 4.57,4.57 0 0 1 0.36,0.82 h 14.65 a 40.83,40.83 0 0 0 9.04,-6.27 z"
     fill="#6c63ff"
     id="path99"
     style="fill:#ff6600" />
  <path
     d="m 1029.56,732.29 a 11.67,11.67 0 0 0 3.83,-5.78 c 0.5,-2.3 -0.48,-5.05 -2.68,-5.89 -2.46,-0.94 -5.09,0.76 -7.08,2.49 -1.99,1.73 -4.28,3.69 -6.89,3.32 a 10.48,10.48 0 0 0 3.24,-9.81 4.1,4.1 0 0 0 -0.9,-2 c -1.37,-1.46 -3.84,-0.83 -5.48,0.32 -5.2,3.66 -6.65,10.72 -6.68,17.08 -0.52,-2.29 -0.08,-4.68 -0.1,-7 -0.02,-2.32 -0.66,-5 -2.64,-6.22 a 8,8 0 0 0 -4,-0.95 c -2.34,-0.09 -4.94,0.15 -6.54,1.86 -2,2.12 -1.47,5.69 0.26,8 1.73,2.31 4.35,3.8 6.77,5.42 a 15,15 0 0 1 4.84,4.61 4.57,4.57 0 0 1 0.36,0.82 h 14.65 a 40.83,40.83 0 0 0 9.04,-6.27 z"
     fill="#6c63ff"
     id="path100"
     style="fill:#ff6600" />
  <path
     d="m 688.69,726.87 c 0,0 -1,15.66 1,18.26 0,0 -45.92,8.35 -51.66,5.74 -5.74,-2.61 -3.13,-6.78 0,-8.35 3.13,-1.57 18.79,-7.31 20.87,-18.26 0,0 -6.78,-3.13 15.13,1 21.91,4.13 14.66,1.61 14.66,1.61 z"
     fill="#dc9ba3"
     id="path101" />
  <path
     d="m 688.69,726.87 c 0,0 -1,15.66 1,18.26 0,0 -45.92,8.35 -51.66,5.74 -5.74,-2.61 -3.13,-6.78 0,-8.35 3.13,-1.57 18.79,-7.31 20.87,-18.26 0,0 -6.78,-3.13 15.13,1 21.91,4.13 14.66,1.61 14.66,1.61 z"
     opacity="0.05"
     id="path102" />
  <path
     d="m 867.68,575.01 c 0,0 -5.74,9.39 -2.09,27.66 3.65,18.27 -9.39,18.26 -9.39,18.26 h -26.08 l -8.87,-23 12.52,1 c 0,0 8.35,-2.09 4.7,-21.4 z"
     fill="#ffd2d9"
     id="path103" />
  <path
     d="m 789.41,553.1 c 4,12.71 9,28.19 11.67,36.44 l 1.9,5.83 17.22,-17.74 c 0,0 -0.76,-1.76 -1.89,-4.22 -2.52,-5.46 -6.91,-14.37 -9.07,-15.09 0,0 24,-1.57 31.31,4.17 7.31,5.74 5.22,-15.66 5.22,-15.66 0,0 -14.09,-1 -19.31,-4.17 -5.22,-3.17 -33.4,-6.26 -33.4,-6.26 0,0 -9.39,-1.57 -3.65,16.7 z"
     fill="#ffd2d9"
     id="path104" />
  <path
     d="m 632.85,706.55 3.65,26.61 9.39,-1 c 0,0 0.57,-0.54 1.53,-1.4 2.53,-2.23 7.8,-6.6 12.84,-9 a 15.73,15.73 0 0 1 5.46,-1.63 l -10.44,-15.66 a 57.66,57.66 0 0 1 -7.79,2.31 37.61,37.61 0 0 1 -8.39,1 15.32,15.32 0 0 1 -6.25,-1.23 z"
     fill="#ffd2d9"
     id="path105" />
  <path
     d="m 658.94,725.31 c 4.7,4.17 26.09,-4.7 29.75,8.87 l 3.36,-12.87 10.35,-39.6 1.42,-5.45 8.62,-0.37 98.93,-4.22 5.6,-0.24 3,-0.13 -3.92,-1.94 -26.09,-12.93 c 0,0 -9.4,-0.66 -22.36,-2.44 v 0 c -19.65,-2.69 -47.49,-8 -63.21,-17.39 -26.09,-15.66 -36,37.05 -36,37.05 0,0 -4,13.37 -7,26.55 a 153.76,153.76 0 0 0 -3.15,17.25 c -0.45,4.03 -0.31,6.95 0.7,7.86 z"
     fill="#e9e9ef"
     id="path106" />
  <path
     d="m 658.94,725.31 c 4.7,4.17 26.09,-4.7 29.75,8.87 l 3.36,-12.87 10.35,-39.6 1.42,-5.45 8.89,-0.55 95.58,-5.88 5.9,-0.37 1.82,-0.11 2.35,-0.15 -28.44,-12.79 c 0,0 -9.4,-0.66 -22.36,-2.44 v 0 c -19.65,-2.69 -47.49,-8 -63.21,-17.39 -26.09,-15.66 -36,37.05 -36,37.05 0,0 -4,13.37 -7,26.55 a 153.76,153.76 0 0 0 -3.15,17.25 c -0.41,4.05 -0.27,6.97 0.74,7.88 z"
     opacity="0.05"
     id="path107" />
  <path
     d="m 647.5,706.74 9.13,10.71 3.64,4.27 a 15.73,15.73 0 0 1 5.46,-1.63 l -10.44,-15.66 a 57.66,57.66 0 0 1 -7.79,2.31 z"
     opacity="0.1"
     id="path108" />
  <path
     d="m 647.99,705.48 10.21,12 4.92,5.77 v 1.57 c 6,1.39 24.79,-2.57 28.93,-3.48 l 0.81,-0.18 c 12,0.52 56.36,-25.57 56.36,-25.57 0,0 48.53,8.35 72,6.26 13.11,-1.17 16.79,-5.91 17.48,-9.88 a 10.29,10.29 0 0 0 -0.78,-5.78 l -21,-14.75 -2.78,-2 -4.44,-3.13 c 0,0 -7.72,-1.75 -17.52,-3.91 v 0 c -15.32,-3.38 -35.73,-7.77 -39.86,-8.08 -6.78,-0.52 -24,5.22 -33.92,16.7 a 29.31,29.31 0 0 1 -5.72,4.67 l -0.27,0.18 c -2.79,1.85 -6.22,3.81 -10,5.82 -12.63,6.65 -29.47,13.8 -41.05,18.49 -7.92,3.23 -13.37,5.3 -13.37,5.3 z"
     fill="#e9e9ef"
     id="path109" />
  <path
     d="m 632.85,706.55 3.65,26.61 9.39,-1 c 0,0 0.57,-0.54 1.53,-1.4 -2.08,0 -5.51,-0.55 -6.23,-4.86 0,0 3.62,-12.65 -2.09,-18.1 a 15.32,15.32 0 0 1 -6.25,-1.25 z"
     opacity="0.1"
     id="path110" />
  <path
     d="m 640.12,725.83 c 0,0 5.22,-18.26 -6.78,-20.35 l -19.83,7.83 -23,1.57 c 0,0 -6,9.79 3.61,20.77 a 29.52,29.52 0 0 0 20.94,9.9 l 25.06,1.15 7.87,-16.15 c 0,0 -6.79,1.54 -7.87,-4.72 z"
     fill="#dc9ba3"
     id="path111" />
  <path
     d="m 767.57,653.99 c 2.63,0.77 13.51,4 24.65,8.43 v 0 a 137.31,137.31 0 0 1 16.06,7.41 c 1.08,0.61 2.11,1.22 3.08,1.83 a 26.56,26.56 0 0 1 6.73,5.64 c 6.44,8.33 15.9,12.82 20.61,14.65 a 10.29,10.29 0 0 0 -0.78,-5.78 l -21,-14.75 3,-0.13 -3.92,-1.94 2.35,-0.15 -28.44,-12.79 c 0,0 -9.38,-0.64 -22.34,-2.42 z"
     opacity="0.1"
     id="path112" />
  <path
     d="m 801.12,589.55 1.9,5.83 17.22,-17.74 c 0,0 -0.76,-1.76 -1.89,-4.22 -2.23,4.59 -12.62,12.65 -17.23,16.13 z"
     opacity="0.1"
     id="path113" />
  <path
     d="m 863.21,598.2 a 30.34,30.34 0 0 0 1.35,-5.44 l 22.43,7.79 c 0,0 15.39,11.74 13.83,37.31 0,0 -19,-7 -27.4,1.3 l -0.17,1.47 a 67.84,67.84 0 0 1 -18.4,38.82 c -4.15,4.36 -8.06,9.27 -10.13,14 0,0 -14.61,-4.17 -23.48,-15.66 -8.87,-11.49 -51.12,-23.45 -51.12,-23.45 0,0 22.44,0.52 25.57,-7.31 3.13,-7.83 13.57,-24.53 9.92,-37.57 -3.65,-13.04 -5.74,-17.22 -5.74,-17.22 0,0 21.4,-15.13 19.83,-19.83 l 13.57,15.66 6.26,2.09 a 10,10 0 0 0 -0.74,3.82 c -0.36,14.17 19.66,17.57 24.42,4.22 z"
     fill="#cedad5"
     id="path114"
     style="fill:#799a8c;fill-opacity:1" />
  <path
     d="m 839.25,584.48 a 54.1,54.1 0 0 0 -0.79,-5.81 l 29.22,-2.61 c 0,0 -2,1.75 -2.9,8.27 -3.43,2 -7.43,4.78 -11.71,4.78 a 22.86,22.86 0 0 1 -13.82,-4.63 z"
     opacity="0.1"
     id="path115" />
  <circle
     cx="852.81"
     cy="565.35999"
     r="22.959999"
     fill="#ffd2d9"
     id="circle115" />
  <path
     d="m 869.77,571.36 h -3.13 v -8.87 l -3.13,-9.39 c 0,0 -15.66,-7.31 -23,-5.74 l -5.7,5.19 c 0,0 -1.57,-12.52 7.83,-17.22 9.4,-4.7 26.09,-2.61 30.27,1 4.18,3.61 11,9.92 5.74,27.14 l -1.53,4.24 c 0,0 -6.31,-2.09 -7.35,3.65 z"
     fill="#844f6e"
     id="path116" />
  <g
     opacity="0.05"
     id="g120">
    <path
       d="m 858.09,642.86 -1.71,-0.57 -7.88,-9.09 a 2.22,2.22 0 0 0 0.05,-1.34 z"
       transform="translate(-28.88,-59.45)"
       id="path117" />
    <path
       d="m 869.07,659.7 a 11.82,11.82 0 0 1 -7.17,-11.5 c 0,-0.31 0,-0.6 0,-0.88 l 0.16,0.19 6.26,2.09 a 10,10 0 0 0 -0.74,3.82 12.47,12.47 0 0 0 1.49,6.28 z"
       transform="translate(-28.88,-59.45)"
       id="path118" />
    <path
       d="m 808.2,713.36 c 13.08,4.55 30.79,11.72 36.18,18.69 l 0.4,0.5 c -14.33,-9.83 -45.8,-18.77 -45.8,-18.77 a 81.34,81.34 0 0 0 9.22,-0.42 z"
       transform="translate(-28.88,-59.45)"
       id="path119" />
    <path
       d="m 867.86,747.71 c 2.07,-4.71 6,-9.63 10.13,-14 a 67.84,67.84 0 0 0 18.4,-38.82 l 0.17,-1.47 c 8.35,-8.35 27.4,-1.3 27.4,-1.3 1,-16.22 -4.84,-26.87 -9.23,-32.49 l 1.15,0.4 c 0,0 15.39,11.74 13.83,37.31 0,0 -19,-7 -27.4,1.3 l -0.17,1.47 a 67.84,67.84 0 0 1 -18.4,38.82 c -4.15,4.36 -8.06,9.27 -10.13,14 0,0 -12.72,-3.64 -21.62,-13.44 a 54,54 0 0 0 15.87,8.22 z"
       transform="translate(-28.88,-59.45)"
       id="path120" />
  </g>
  <path
     d="m 844.72,627.2 c 0,0 25,36 38.09,46.44 13.09,10.44 16.7,-4.7 16.7,-4.7 v -33.39 l -23,-2.61 -0.25,3.17 -0.28,3.62 -21.4,-23 c 0,0 -21.4,-19.31 -25.57,-7.83 -4.17,11.48 15.71,18.3 15.71,18.3 z"
     fill="#ffd2d9"
     id="path121" />
  <path
     d="m 876.31,636.11 a 49.72,49.72 0 0 0 9.9,4.4 c 4.93,1.52 10.58,-0.08 13.31,-1.06 v -3.9 l -23,-2.61 z"
     opacity="0.1"
     id="path122" />
  <path
     d="m 899.78,632.16 1.34,5.59 c 0,0 -8.16,3.8 -14.94,1.72 a 59.33,59.33 0 0 1 -13,-6.26 c -1,-0.52 4.17,-6.26 4.17,-6.26 z"
     fill="#cedad5"
     id="path123" />
  <path
     d="M 749.48,695.82 A 42.39,42.39 0 0 0 738,689.55 41,41 0 0 1 727,683.81"
     opacity="0.1"
     id="path124" />
  <path
     d="m 590.58,714.87 0.85,-0.06 c -1.24,3.15 -3,10.85 4.32,19.26 a 29.52,29.52 0 0 0 20.87,9.89 l 24.3,1.14 -0.78,1.6 -25.08,-1.15 a 29.52,29.52 0 0 1 -20.87,-9.89 c -9.61,-11 -3.61,-20.79 -3.61,-20.79 z"
     fill="#ffffff"
     opacity="0.2"
     id="path125" />
  <path
     d="m 679.19,737.24 q -0.11,0.47 -0.25,0.93 c -0.51,-0.29 -1.24,-0.85 0.25,-0.93 z"
     fill="#00ff00"
     opacity="0.05"
     id="path126" />
  <path
     d="m 638.12,749.31 c 5.35,2.43 45.57,-4.65 51,-5.63 a 4.06,4.06 0 0 0 0.62,1.45 c 0,0 -45.92,8.35 -51.66,5.74 -3,-1.34 -3.69,-3.1 -3.29,-4.7 0.33,1.12 1.27,2.23 3.33,3.14 z"
     fill="#ffffff"
     opacity="0.2"
     id="path127" />
  <path
     d="m 838.22,554.39 a 35.56,35.56 0 0 1 -13.24,-14.2 3.2,3.2 0 0 1 -0.49,-2.19 c 0.37,-1.42 2.22,-1.67 3.56,-2.28 2.49,-1.14 3.54,-4 5.17,-6.22 a 12.45,12.45 0 0 1 12.17,-4.67 c 2.38,0.48 4.58,1.66 7,2 5.18,0.76 10.82,-2.38 15.47,0 2.12,1.09 3.56,3.14 4.82,5.16 3.17,5.07 7.14,10.46 4.26,16.38 -1.65,3.4 -4.29,6.22 -8,7.21 -3.71,0.99 -8,0.16 -11.78,-0.24 -3.1,-0.34 -6.36,-1 -9.48,-0.72 -3.68,0.38 -5.97,1.87 -9.46,-0.23 z"
     opacity="0.1"
     id="path128" />
  <path
     d="m 838.22,553.34 a 35.56,35.56 0 0 1 -13.24,-14.2 3.2,3.2 0 0 1 -0.49,-2.19 c 0.37,-1.42 2.22,-1.67 3.56,-2.28 2.49,-1.14 3.54,-4 5.17,-6.22 a 12.45,12.45 0 0 1 12.17,-4.67 c 2.38,0.48 4.58,1.66 7,2 5.18,0.76 10.82,-2.38 15.47,0 2.12,1.09 3.56,3.14 4.82,5.16 3.17,5.07 7.14,10.46 4.26,16.38 -1.65,3.4 -4.29,6.22 -8,7.21 -3.71,0.99 -8,0.16 -11.78,-0.24 -3.1,-0.34 -6.36,-1 -9.48,-0.72 -3.68,0.38 -5.97,1.88 -9.46,-0.23 z"
     fill="#844f6e"
     id="path129" />
  <path
     d="m 408.06,677.66 c 0,10.76 0.6,17.87 0.6,17.87 0,0 15.37,0.86 14.94,15.11 -0.43,14.25 59.74,17.27 59.74,17.27 0,0 0,-0.15 0,-0.43 v 0 c 0,0 0,-1.15 0,-3.23 5.72,0.85 11.84,1.54 15.27,1.21 -0.23,1.11 -0.5,2.28 -0.76,3.32 -0.28,0.28 -5.82,5.88 -5.64,11.84 -0.1,3 1.26,6.08 5.66,8.64 12.7,7.42 52.25,3.29 52.25,3.29 6,-3.94 8,-7.29 7.89,-10.07 0.19,-4.1 -3.9,-7 -7.65,-8.87 a 13.5,13.5 0 0 0 -9.36,-1 44.92,44.92 0 0 1 -12.91,0.95 20,20 0 0 1 0.67,-2.54 c 4.06,1.15 6.86,2 6.86,2 0,0 21.08,-11.22 12.3,-29.35 a 14.85,14.85 0 0 0 -6,-5.93 c 6.77,-11.67 13.2,-25.41 12.56,-34.65 -1.07,-15.42 -31.69,-12.06 -43.16,-10.25 l -22.11,-21.69 c 0,-16 0.49,-34.37 -1,-38.35 -2.64,-6.91 -1.76,-6 -3.51,-9.06 l -0.07,-0.11 c -1,-1.62 -3.72,-4.19 -4.42,-3.84 a 44.62,44.62 0 0 1 0.13,-9.55 27.25,27.25 0 0 0 18.78,-25.78 26.68,26.68 0 0 0 -3,-12.31 l 0.3,-0.13 -2.9,-14.26 a 2.37,2.37 0 0 1 0.13,-1.85 c 0.3,-0.4 0.81,-0.52 1.2,-0.8 a 2.76,2.76 0 0 0 0.47,-3.36 4.58,4.58 0 0 0 -1.09,-1.39 c -2.44,-2.77 -7.63,-1.78 -10.82,-2.19 -4.32,-0.55 -8.85,-1.35 -12.94,0.79 a 21.38,21.38 0 0 1 -2.75,1.44 11.84,11.84 0 0 1 -4,0.38 40.4,40.4 0 0 0 -7.26,0.65 c -3.12,-1.13 -6.79,-0.13 -9.68,1.6 a 21.35,21.35 0 0 0 -10.16,19.52 41.36,41.36 0 0 0 1.39,7.15 l 5.35,20.85 a 13.59,13.59 0 0 0 2,4.88 5.75,5.75 0 0 0 0.8,0.86 4.63,4.63 0 0 0 4.26,1.62 2.89,2.89 0 0 0 0.59,-0.21 29.57,29.57 0 0 1 -1.27,6.46 c -6.12,1.78 -15,8 -25.66,26 -13.68,23.06 -15.96,57.06 -16.02,77.5 z m 87.3,-14.64 z"
     fill="url(#d91c7811-87ec-4fc8-aa52-46c2543d8327-229)"
     id="path130"
     style="fill:url(#d91c7811-87ec-4fc8-aa52-46c2543d8327-229)" />
  <rect
     x="-521.08997"
     y="-707.65002"
     width="59.84"
     height="42.860001"
     transform="scale(-1)"
     fill="#5f5d7e"
     id="rect130" />
  <path
     d="m 506.24,655.45 c 0,0 44.56,-9.34 45.83,9.34 1.27,18.68 -26.31,56 -26.31,56 l -25,-5.09 7.21,-28.86 c 0,0 -28.43,-6.37 -30.13,-6.79 -1.7,-0.42 28.4,-24.6 28.4,-24.6 z"
     fill="#5f5d7e"
     id="path131" />
  <path
     d="m 506.24,655.45 c 0,0 44.56,-9.34 45.83,9.34 1.27,18.68 -26.31,56 -26.31,56 l -25,-5.09 7.21,-28.86 c 0,0 -28.43,-6.37 -30.13,-6.79 -1.7,-0.42 28.4,-24.6 28.4,-24.6 z"
     opacity="0.1"
     id="path132"
     style="opacity:0.32646;fill:#474760;fill-opacity:1" />
  <path
     d="m 529.59,725.9 c 0,0 -4.24,8.06 -3,11.46 1.24,3.4 -30.13,-4.67 -30.13,-4.67 0,0 2.55,-9.76 2.12,-11 -0.43,-1.24 31.01,4.21 31.01,4.21 z"
     fill="#5f5d7e"
     id="path133" />
  <path
     d="m 502,670.73 3.12,2.82 2,1.82 c 0,0 10.19,16.55 23.34,6.37 13.15,-10.18 -10.21,-17.8 -14.88,-18.19 a 5.86,5.86 0 0 1 -4.4,-3.19 14,14 0 0 1 -1.54,-4 z"
     fill="#fdc2cc"
     id="path134" />
  <path
     d="m 502,670.73 3.12,2.82 2,1.82 c 0,0 10.19,16.55 23.34,6.37 13.15,-10.18 -10.21,-17.8 -14.88,-18.19 a 5.86,5.86 0 0 1 -4.4,-3.19 14,14 0 0 1 -1.54,-4 z"
     opacity="0.05"
     id="path135" />
  <path
     d="m 529.59,725.9 c 0,0 -4.24,8.06 -3,11.46 1.24,3.4 -30.13,-4.67 -30.13,-4.67 0,0 2.55,-9.76 2.12,-11 -0.43,-1.24 31.01,4.21 31.01,4.21 z"
     opacity="0.1"
     id="path136" />
  <path
     d="m 502,670.73 3.12,2.82 c 0,-5.44 3.61,-10.44 6.08,-13.25 a 14,14 0 0 1 -1.54,-4 z"
     opacity="0.1"
     id="path137" />
  <path
     d="m 483.33,627.87 29.28,29.28 c 0,0 -10.19,8.91 -8.06,18.25 l -21.22,-23.77 z"
     fill="#c4c8e2"
     id="path138" />
  <path
     d="m 483.54,627.87 v 23.77 l 3.4,3.81 10.09,11.3 7.73,8.66 c -2.12,-9.34 8.06,-18.25 8.06,-18.25 z"
     opacity="0.1"
     id="path139" />
  <path
     d="m 483.33,585.85 c 0,0 0,8.91 -7.64,6.37 -7.64,-2.54 -1.7,100.58 -1.7,100.58 0,0 22.07,-16.55 17.82,-28.43 -4.25,-11.88 -5.09,-20.82 -4.69,-32.68 0.4,-11.86 -3.79,-45.84 -3.79,-45.84 z"
     fill="#d39999"
     id="path140" />
  <path
     d="m 482.9,562.09 c 0,0 -6.37,17.4 0,30.56 6.37,13.16 -37.78,-7.22 -37.78,-7.22 0,0 9.76,-4.67 6.37,-27.16 z"
     fill="#fdc2cc"
     id="path141" />
  <path
     d="m 486.72,641.45 a 125.19,125.19 0 0 0 0,14 l 10.09,11.3 a 85.06,85.06 0 0 0 -5,-9.17 c -1.57,-2.43 -1.92,-12.12 -2,-23.18 l -3.7,-3.7 c 0.39,5.97 0.61,10.75 0.61,10.75 z"
     opacity="0.1"
     id="path142" />
  <path
     d="m 480.12,583.55 c -0.47,-2.23 3.21,1.13 4.39,3.08 l 0.06,0.11 c 1.7,3 0.85,2.12 3.4,8.91 2.55,6.79 -0.85,56 3,62 a 95.5,95.5 0 0 1 6.79,13.16 l -6.79,-2.55 c 0,0 -2.55,-7.64 -4.24,-9.34 -1.69,-1.7 -0.85,-17.4 -0.85,-17.4 0,0 -1.27,-27.16 -2.55,-33.1 -1.01,-4.78 -2.21,-20.18 -3.21,-24.87 z"
     fill="#c4c8e2"
     id="path143" />
  <path
     d="m 480.12,583.55 c -0.47,-2.23 3.21,1.13 4.39,3.08 l 0.06,0.11 c 1.7,3 0.85,2.12 3.4,8.91 2.55,6.79 -0.85,56 3,62 a 95.5,95.5 0 0 1 6.79,13.16 l -6.79,-2.55 c 0,0 -2.55,-7.64 -4.24,-9.34 -1.69,-1.7 -0.85,-17.4 -0.85,-17.4 0,0 -1.27,-27.16 -2.55,-33.1 -1.01,-4.78 -2.21,-20.18 -3.21,-24.87 z"
     opacity="0.1"
     id="path144" />
  <path
     d="m 470.17,689.4 c 0,0 67.05,-2.55 75.54,15.28 8.49,17.83 -11.88,28.87 -11.88,28.87 0,0 -28.43,-8.91 -34.8,-7.64 -6.37,1.27 -28.86,-3.4 -28.86,-3.4 z"
     fill="#5f5d7e"
     id="path145"
     style="fill:#403e54;fill-opacity:1" />
  <path
     d="m 507.52,678.37 c 0,0 15.28,-8.49 23.77,-3 8.49,5.49 7.64,20.37 -4.24,20.79 -11.88,0.42 -18.25,-6.79 -18.25,-6.79 z"
     fill="#fdc2cc"
     id="path146" />
  <path
     d="m 459.56,577.79 c 0,0 -13.58,-9.34 -33.53,25 -19.95,34.34 -14.85,93.36 -14.85,93.36 0,0 14.85,0.85 14.43,14.85 -0.42,14 57.72,17 57.72,17 0,0 -0.85,-139.2 -6.79,-143 -5.94,-3.8 -16.98,-7.21 -16.98,-7.21 z"
     fill="#c4c8e2"
     id="path147" />
  <path
     d="m 459.5,603.11 a 18.59,18.59 0 0 1 7.72,15.12 c 0.07,12.71 0.38,40.1 1.67,45.28 1.7,6.79 27.16,15.7 40.32,15.28 0,0 6.37,11.88 -1.27,14.43 -7.64,2.55 -54.32,0 -54.32,0 0,0 -18.25,-20.79 -18.67,-39 -0.42,-18.21 -3,-38.62 0,-42.44 2.45,-3.23 12.7,-17.03 24.55,-8.67 z"
     opacity="0.1"
     id="path148" />
  <path
     d="m 460.35,601.41 a 18.59,18.59 0 0 1 7.77,15.14 c 0.07,12.71 0.38,40.1 1.67,45.28 1.7,6.79 27.16,15.7 40.32,15.28 0,0 6.37,11.88 -1.27,14.43 -7.64,2.55 -54.32,0 -54.32,0 0,0 -18.25,-20.79 -18.67,-39 -0.42,-18.21 -3,-38.62 0,-42.44 2.4,-3.21 12.65,-17.05 24.5,-8.69 z"
     fill="#c4c8e2"
     id="path149" />
  <path
     d="m 548.07,734.06 c 6.09,3 13.15,9.18 -0.23,18.57 0,0 -38.19,4.24 -50.5,-3.4 -12.31,-7.64 0,-19.95 0,-19.95 0,0 28.17,7.49 41.69,3.83 a 12.83,12.83 0 0 1 9.04,0.95 z"
     fill="#4c4c56"
     id="path150" />
  <path
     d="m 548.07,734.92 c 6.09,2.9 13.15,8.78 -0.23,17.77 0,0 -38.19,4.06 -50.5,-3.25 -12.31,-7.31 0,-19.08 0,-19.08 0,0 28.17,7.16 41.69,3.67 a 13.36,13.36 0 0 1 9.04,0.89 z"
     opacity="0.1"
     id="path151" />
  <path
     d="m 461.47,633.17 c 0,0 2.12,26.74 16.13,32.68"
     opacity="0.1"
     id="path152" />
  <path
     d="m 482.48,565.06 a 54.46,54.46 0 0 0 -2.51,11.34 c -2.68,0.9 -6.6,-1.36 -9.59,-1.36 -7.78,0 -10,-8.7 -14.85,-14 0,-2.36 -4,3.15 -4.46,0.21 z"
     opacity="0.1"
     id="path153" />
  <path
     d="m 445.12,548.08 a 26.86,26.86 0 0 0 0.81,6.58 l 0.09,0.34 a 26.87,26.87 0 1 0 -0.9,-6.91 z"
     fill="#fdc2cc"
     id="path154" />
  <path
     d="m 426.04,603.25 a 101,101 0 0 1 9.49,-13.88 108,108 0 0 0 -7.79,11.76 c -19.95,34.38 -14.85,93.36 -14.85,93.36 0,0 14.85,0.85 14.43,14.85 -0.38,12.57 46.41,16.25 56,16.87 0,1.44 0,2.22 0,2.22 0,0 -58.14,-3 -57.72,-17 0.42,-14 -14.43,-14.85 -14.43,-14.85 0,0 -5.05,-58.95 14.87,-93.33 z"
     opacity="0.1"
     id="path155" />
  <path
     d="m 448.51,517.55 c 2.8,-1.69 6.34,-2.68 9.36,-1.57 a 38.38,38.38 0 0 1 7,-0.64 11.25,11.25 0 0 0 3.82,-0.37 20.53,20.53 0 0 0 2.66,-1.41 c 3.95,-2.1 8.33,-1.31 12.5,-0.77 3.39,0.44 9.12,-0.79 11.08,3.09 a 2.75,2.75 0 0 1 -0.45,3.3 c -0.38,0.28 -0.87,0.39 -1.16,0.79 a 2.37,2.37 0 0 0 -0.13,1.82 l 2.8,14 a 10.52,10.52 0 0 1 -8.33,0.38 23.44,23.44 0 0 1 -2.2,-1 c -2.09,1.36 -4.25,0.33 -6.78,0.87 a 7.73,7.73 0 0 0 -3.82,2.5 22.24,22.24 0 0 0 -5.67,11.29 c -0.28,1.59 -0.65,3.55 -2.19,4 a 10.05,10.05 0 0 1 -1.77,0.18 c -2.78,0.36 -3.92,3.65 -5.71,5.82 -2.18,2.64 -6.09,4.36 -6.33,7.78 -0.06,0.88 0.13,1.85 -0.36,2.59 a 2.18,2.18 0 0 1 -1.36,0.84 4.59,4.59 0 0 1 -4.46,-2 13.49,13.49 0 0 1 -1.89,-4.79 l -5.17,-20.5 a 41.31,41.31 0 0 1 -1.35,-7 21.1,21.1 0 0 1 9.91,-19.2 z"
     opacity="0.1"
     id="path156" />
  <path
     d="m 448.12,517.17 c 2.8,-1.69 6.34,-2.68 9.36,-1.57 a 38.38,38.38 0 0 1 7,-0.64 11.25,11.25 0 0 0 3.82,-0.37 20.53,20.53 0 0 0 2.66,-1.41 c 3.95,-2.1 8.33,-1.31 12.5,-0.77 3.39,0.44 9.12,-0.79 11.08,3.09 a 2.75,2.75 0 0 1 -0.45,3.3 c -0.38,0.28 -0.87,0.39 -1.16,0.79 a 2.37,2.37 0 0 0 -0.13,1.82 l 2.8,14 a 10.52,10.52 0 0 1 -8.33,0.38 23.44,23.44 0 0 1 -2.2,-1 c -2.09,1.36 -4.25,0.33 -6.78,0.87 a 7.73,7.73 0 0 0 -3.82,2.5 22.24,22.24 0 0 0 -5.67,11.29 c -0.28,1.59 -0.65,3.55 -2.19,4 a 10.05,10.05 0 0 1 -1.77,0.18 c -2.78,0.36 -3.92,3.65 -5.71,5.82 -2.18,2.64 -6.09,4.36 -6.33,7.78 -0.06,0.88 0.13,1.85 -0.36,2.59 a 2.18,2.18 0 0 1 -1.36,0.84 4.59,4.59 0 0 1 -4.46,-2 13.49,13.49 0 0 1 -1.89,-4.79 l -5.17,-20.5 a 41.31,41.31 0 0 1 -1.35,-7 21.1,21.1 0 0 1 9.91,-19.2 z"
     fill="#865a61"
     id="path157" />
</svg>
