<?xml version="1.0" encoding="UTF-8" standalone="no"?>
<svg
   data-name="Layer 1"
   width="997"
   height="808"
   viewBox="0 0 997 808"
   version="1.1"
   id="svg75"
   xmlns="http://www.w3.org/2000/svg"
   xmlns:svg="http://www.w3.org/2000/svg">
  <defs
     id="defs3">
    <linearGradient
       id="2f4d485d-57ea-446e-b436-4d82ba75f353-318"
       x1="570.56"
       y1="454"
       x2="570.56"
       y2="63.07"
       gradientUnits="userSpaceOnUse"
       gradientTransform="translate(-101.5,-46)">
      <stop
         offset="0"
         stop-color="gray"
         stop-opacity="0.25"
         id="stop1" />
      <stop
         offset="0.54"
         stop-color="gray"
         stop-opacity="0.12"
         id="stop2" />
      <stop
         offset="1"
         stop-color="gray"
         stop-opacity="0.1"
         id="stop3" />
    </linearGradient>
  </defs>
  <title
     id="title3">track and field</title>
  <path
     d="m 260.64,0.9 c 93,12.73 168.51,101.25 252.3,156.49 18.67,12.31 38.24,23.15 58.93,26.36 68.54,10.64 131.74,-63.09 200.6,-57.07 55.81,4.88 103.14,64 123.22,133.54 20.08,69.54 17,147.32 5.85,220.32 -17.46,114 -56.14,226.15 -123.47,300.3 -11.11,12.24 -23.52,23.69 -37.79,26.47 -23.78,4.69 -45.83,-15.46 -66.41,-32.12 -92.88,-75.22 -210.3,-94.32 -314,-51.08 -35.12,14.64 -68.71,36 -104.65,46.54 -69.21,20.26 -147.53,-5.34 -194.52,-76 -46.99,-70.66 -54.63,-186.8 -9.86,-260 18.69,-30.55 44.45,-52.12 64.07,-81.6 49.3,-74 31.1,-148.82 25,-235.6 C 133.9,31.94 206.31,-6.53 260.64,0.9 Z"
     fill="#6c63ff"
     opacity="0.1"
     id="path3"
     style="opacity:1;fill:#9e8dc9;fill-opacity:0.420108" />
  <g
     opacity="0.2"
     id="g8"
     style="opacity:1;fill:#9f87d4;fill-opacity:1">
    <path
       d="m 784.88,591 c 0,0 27.51,27.51 12,68.33 -15.51,40.82 26.62,108.7 26.62,108.7 l -1.29,-0.21 c -56.5,-10 -84.57,-74.59 -53.15,-122.59 11.66,-17.81 21.25,-38.75 15.82,-54.23 z"
       transform="translate(-101.5,-46)"
       fill="#6c63ff"
       id="path4"
       style="fill:#9f87d4;fill-opacity:1" />
    <path
       d="m 784.88,591.5 c 0,0 27.51,27.51 12,68.33 -15.51,40.82 26.62,108.7 26.62,108.7 l -1.29,-0.21 c -56.5,-10 -84.57,-74.59 -53.15,-122.59 11.66,-17.86 21.25,-38.79 15.82,-54.23 z"
       transform="translate(-101.5,-46)"
       opacity="0.1"
       id="path5"
       style="fill:#9f87d4;fill-opacity:1" />
    <path
       d="m 784.88,591 c 0,0 15.53,33.72 0,61.23 -15.53,27.51 -2.66,104.71 38.6,115.8"
       transform="translate(-101.5,-46)"
       fill="none"
       stroke="#535461"
       stroke-miterlimit="10"
       id="path6"
       style="fill:#9f87d4;fill-opacity:1" />
    <path
       d="m 735.89,702.3 c 0,0 31.39,-5 34.25,23.13 2.86,28.13 60.36,32 60.36,32 l -1.08,0.72 c -47.48,31.17 -92.86,19.85 -86,-21.53 2.53,-15.35 2.32,-30.81 -7.53,-34.32 z"
       transform="translate(-101.5,-46)"
       fill="#6c63ff"
       id="path7"
       style="fill:#9f87d4;fill-opacity:1" />
    <path
       d="m 735.89,702.3 c 0,0 24.37,5.35 22.36,27.5 -2.01,22.15 36.18,48.71 72.25,27.66"
       transform="translate(-101.5,-46)"
       fill="none"
       stroke="#535461"
       stroke-miterlimit="10"
       id="path8"
       style="fill:#9f87d4;fill-opacity:1" />
  </g>
  <g
     opacity="0.2"
     id="g13"
     style="opacity:1;fill:#9f87d4;fill-opacity:1">
    <path
       d="m 458.6,547.68 c 0,0 22.86,22.86 10,56.77 -12.86,33.91 22.12,90.32 22.12,90.32 l -1.07,-0.18 c -46.94,-8.29 -70.27,-62 -44.17,-101.86 9.66,-14.83 17.63,-32.22 13.12,-45.05 z"
       transform="translate(-101.5,-46)"
       fill="#6c63ff"
       id="path9"
       style="fill:#9f87d4;fill-opacity:1" />
    <path
       d="m 458.6,548.06 c 0,0 22.86,22.86 10,56.77 -12.86,33.91 22.12,90.32 22.12,90.32 L 489.6,695 c -46.94,-8.29 -70.27,-62 -44.17,-101.86 9.71,-14.86 17.68,-32.25 13.17,-45.08 z"
       transform="translate(-101.5,-46)"
       opacity="0.1"
       id="path10"
       style="fill:#9f87d4;fill-opacity:1" />
    <path
       d="m 458.6,547.68 c 0,0 12.9,28 0,50.87 -12.9,22.87 -2.21,87 32.07,96.22"
       transform="translate(-101.5,-46)"
       fill="none"
       stroke="#535461"
       stroke-miterlimit="10"
       id="path11"
       style="fill:#9f87d4;fill-opacity:1" />
    <path
       d="m 417.89,640.13 c 0,0 26.11,-4.13 28.46,19.22 C 448.7,682.7 496.5,686 496.5,686 l -0.9,0.6 c -39.45,25.9 -77.16,16.5 -71.47,-17.89 2.11,-12.83 1.94,-25.71 -6.24,-28.58 z"
       transform="translate(-101.5,-46)"
       fill="#6c63ff"
       id="path12"
       style="fill:#9f87d4;fill-opacity:1" />
    <path
       d="m 417.89,640.13 c 0,0 20.24,4.44 18.58,22.85 -1.66,18.41 30.06,40.48 60,23"
       transform="translate(-101.5,-46)"
       fill="none"
       stroke="#535461"
       stroke-miterlimit="10"
       id="path13"
       style="fill:#9f87d4;fill-opacity:1" />
  </g>
  <g
     opacity="0.2"
     id="g18"
     style="opacity:1;fill:#9f87d4;fill-opacity:1">
    <path
       d="m 362.6,403.68 c 0,0 22.86,22.86 10,56.77 -12.86,33.91 22.12,90.32 22.12,90.32 l -1.07,-0.18 c -46.94,-8.29 -70.27,-62 -44.17,-101.86 9.66,-14.83 17.63,-32.22 13.12,-45.05 z"
       transform="translate(-101.5,-46)"
       fill="#6c63ff"
       id="path14"
       style="fill:#9f87d4;fill-opacity:1" />
    <path
       d="m 362.6,404.06 c 0,0 22.86,22.86 10,56.77 -12.86,33.91 22.12,90.32 22.12,90.32 L 393.6,551 c -46.94,-8.29 -70.27,-62 -44.17,-101.86 9.71,-14.86 17.68,-32.25 13.17,-45.08 z"
       transform="translate(-101.5,-46)"
       opacity="0.1"
       id="path15"
       style="fill:#9f87d4;fill-opacity:1" />
    <path
       d="m 362.6,403.68 c 0,0 12.9,28 0,50.87 -12.9,22.87 -2.21,87 32.07,96.22"
       transform="translate(-101.5,-46)"
       fill="none"
       stroke="#535461"
       stroke-miterlimit="10"
       id="path16"
       style="fill:#9f87d4;fill-opacity:1" />
    <path
       d="m 321.89,496.13 c 0,0 26.11,-4.13 28.46,19.22 C 352.7,538.7 400.5,542 400.5,542 l -0.9,0.6 c -39.45,25.9 -77.16,16.5 -71.47,-17.89 2.11,-12.83 1.94,-25.71 -6.24,-28.58 z"
       transform="translate(-101.5,-46)"
       fill="#6c63ff"
       id="path17"
       style="fill:#9f87d4;fill-opacity:1" />
    <path
       d="m 321.89,496.13 c 0,0 20.24,4.44 18.58,22.85 -1.66,18.41 30.06,40.48 60,23"
       transform="translate(-101.5,-46)"
       fill="none"
       stroke="#535461"
       stroke-miterlimit="10"
       id="path18"
       style="fill:#9f87d4;fill-opacity:1" />
  </g>
  <polygon
     points="294.05,500.42 344,494.74 344,507.23 65.85,607.13 14.76,592.38 14.76,578.75 "
     fill="#dfe5ee"
     id="polygon18" />
  <polygon
     points="294.05,500.42 344,494.74 344,507.23 65.85,607.13 14.76,592.38 14.76,578.75 "
     opacity="0.05"
     id="polygon19" />
  <polygon
     points="14.76,578.75 294.05,486.79 342.87,494.74 65.85,593.51 "
     fill="#dfe5ee"
     id="polygon20" />
  <rect
     x="57.900002"
     y="370.98999"
     width="18.17"
     height="211.17"
     fill="#dfe5ee"
     id="rect20" />
  <rect
     x="275.88"
     y="322.17001"
     width="18.17"
     height="185.06"
     fill="#dfe5ee"
     id="rect21" />
  <polygon
     points="128.52,296.54 315.62,260.87 339.46,264.27 339.46,321.04 112.67,371.7 85.84,377.7 19.3,392.56 0,386.88 0,321.04 102.91,301.42 "
     fill="#dfe5ee"
     id="polygon21" />
  <polygon
     points="128.52,296.54 315.62,260.87 339.46,264.27 339.46,321.04 112.67,371.7 85.84,377.7 19.3,392.56 0,386.88 0,321.04 102.91,301.42 "
     opacity="0.05"
     id="polygon22" />
  <polygon
     points="76.07,370.99 76.07,382.15 57.9,386.21 57.9,370.99 "
     opacity="0.05"
     id="polygon23" />
  <polygon
     points="294.05,322.17 294.05,333.46 275.88,337.51 275.88,322.17 "
     opacity="0.05"
     id="polygon24" />
  <polygon
     points="112.91,309.42 138.78,304.27 138.79,304.27 244.5,283.2 270.32,278.05 339.46,264.27 339.46,321.04 247.38,341.61 220.6,347.59 112.67,371.7 85.84,377.7 19.3,392.56 20.44,327.85 "
     fill="#dfe5ee"
     id="polygon25" />
  <polygon
     points="112.67,371.7 85.84,377.7 112.91,309.42 102.91,301.42 128.52,296.54 138.78,304.27 138.79,304.27 "
     fill="#6c63ff"
     id="polygon26"
     style="fill:#ff6600" />
  <polygon
     points="271.61,279.03 271.62,279.03 247.38,341.61 220.6,347.59 245.74,284.18 244.5,283.2 235.74,276.18 261.35,271.3 270.32,278.05 "
     fill="#6c63ff"
     id="polygon27"
     style="fill:#ff6600" />
  <polygon
     points="61.88,578.47 80.04,574.21 80.04,578.47 61.88,582.73 "
     opacity="0.05"
     id="polygon28" />
  <polygon
     points="278.72,503.54 296.88,499.28 296.88,503.54 278.72,507.8 "
     opacity="0.05"
     id="polygon29" />
  <path
     d="m 659.73,348.51 c -28.95,15.25 -58.92,-2 -58.92,-2 a 19.07,19.07 0 0 1 -1.61,2.52 c -0.37,-0.28 -0.75,-0.57 -1.13,-0.88 -12.44,-10.17 -26.21,-34.18 -26.21,-34.18 l -26.83,-50.31 a 78.52,78.52 0 0 1 -7.37,-19.19 c -4.42,-19.18 -18.53,-20 -18.53,-20 H 502.6 c -8,0 -19.56,1.68 -31,4 a 2.1,2.1 0 0 0 0.57,-1.14 l -0.55,0.11 6.14,-6 c 0,0 17.57,-7.12 19.64,-22.37 l 9.3,-9.15 c 0,0 0.3,-0.8 0.72,-2.21 l 3.09,-3.89 c 13.46,-16.85 14.43,-17.13 14.43,-17.13 l 40.81,-24.15 c 0,0 14.65,-2.08 8.54,-43.05 -6.11,-40.97 -2,-46 -2,-46 0,0 11.1,-41.05 -10.18,-35.94 -21.28,5.11 -11.66,40.2 -11.66,40.2 l 1.48,7.75 a 74.2,74.2 0 0 1 -0.3,29.35 c -2.21,10.45 -4.68,23.36 -4.06,26.44 1.09,5.37 -11.2,12.17 -11.2,12.17 l -6.95,4.06 a 35.17,35.17 0 0 1 -24.39,4.16 l -0.37,-0.56 -4.16,-3.12 a 12.05,12.05 0 0 0 -0.3,1.3 l -1.7,-1.3 v 0.1 c 0,-0.36 0,-0.7 0.08,-1.08 a 53.88,53.88 0 0 1 2.69,-11.28 c 0.11,-0.34 0.25,-0.7 0.37,-1 a 30.72,30.72 0 0 0 28.86,-30.45 30,30 0 0 0 -1.52,-9.44 6.51,6.51 0 0 0 2.38,0 c 3.74,-0.6 7.71,-2.52 9.65,-5.83 a 10.7,10.7 0 0 0 -0.79,-11.72 11.71,11.71 0 0 0 -1.6,-1.67 c -3.55,-4 -9.49,-5 -14.21,-7.69 -4.49,-2.53 -7.9,-6.57 -12.08,-9.58 -7.9,-5.71 -18,-7.43 -27.64,-9 -4.14,-0.67 -8.35,-1.34 -12.51,-0.79 -5.26,0.7 -10.1,3.33 -14.22,6.62 a 12.8,12.8 0 0 0 -3.59,3.95 c -1.53,3 -0.86,6.52 -1.13,9.84 -0.66,8.08 -7,14.66 -14,18.95 -4.3,2.63 -9,4.73 -12.61,8.26 -3.61,3.53 -5.74,9.1 -3.49,13.56 1.19,2.36 3.54,4.33 3.56,7 a 7.84,7.84 0 0 1 -1,3.34 48.67,48.67 0 0 1 -9.59,13.5 c -14.6,-3.52 -30.36,4.22 -30.36,4.22 l -47.55,2 c 0,0 -13.44,-6.1 -31,31.52 -17.56,37.62 -23.78,39.66 -23.78,39.66 0,0 -32,28.47 -11.37,35.59 20.63,7.12 32,-27.46 32,-27.46 l 11.45,-21.28 c 0,0 25.84,-24.41 27.91,-29.49 2.07,-5.08 14.47,-5.08 14.47,-5.08 l 50.41,2 a 9.59,9.59 0 0 1 0.12,1.23 c 0.12,5.64 -5.17,10 -10.49,12.09 -3.36,1.34 -7.2,2.35 -9.25,5.29 -2.05,2.94 -1.56,7.21 0.5,10.21 a 13.42,13.42 0 0 0 2.19,2.43 20.53,20.53 0 0 0 7.72,5 35.81,35.81 0 0 0 7.51,2.08 76,76 0 0 1 -4.25,12.6 l 2,0.86 -0.66,1.76 c -2.82,7.49 -8.63,22.27 -13.77,31.21 -0.05,0 -9.34,7.88 -16.55,15 -5.51,5.42 -18.79,57.6 20.07,58.54 l 8.87,6.54 h 0.18 c 7.89,11.14 33.94,29.44 33.94,29.44 l -46.07,2.72 a 57.66,57.66 0 0 0 -6.85,0.83 q -1.13,0.2 -2.26,0.45 c -8.12,1.78 -17.11,1.15 -21.93,0.58 -3.19,-6 -18,-3.56 -18,-3.56 0,0 -2.07,30.51 1,47.79 3.07,17.28 14.47,6.1 14.47,6.1 -2.07,-15.25 15,-26.47 15,-26.47 v 0 c 2.17,-1.09 4.74,-2.41 7.76,-4 9.58,-5.14 55.15,2.72 69.24,5.32 a 47.65,47.65 0 0 0 9.41,0.8 c 40.39,-0.66 29.9,-20.36 29.9,-20.36 l -8.13,-16 a 82.22,82.22 0 0 1 -3.56,-8.18 c -7.18,-19 -18.34,-29.46 -26.89,-35.06 0.46,-0.58 0.92,-1.16 1.37,-1.77 0,0 -0.68,-0.16 -1.71,-0.47 7.22,-3.69 12,-6.64 12,-6.64 0,0 47.55,-28.47 45.49,-21.35 -2.06,7.12 10.34,34.57 33.08,53.89 0.66,0.56 1.3,1.13 1.94,1.71 l 0.62,0.57 1.27,1.2 0.69,0.67 1.18,1.18 0.66,0.68 1.25,1.34 0.5,0.54 q 0.85,0.94 1.68,1.9 l 0.36,0.43 q 0.64,0.76 1.27,1.52 l 0.57,0.71 1,1.28 0.58,0.75 1,1.31 0.52,0.69 1.16,1.61 0.28,0.38 q 0.71,1 1.39,2 l 0.34,0.51 1,1.51 0.42,0.65 0.89,1.4 0.39,0.62 0.93,1.53 0.27,0.44 q 1.21,2 2.3,4 l 0.12,0.22 0.95,1.72 0.15,0.28 0.91,1.72 0.06,0.12 a 151.46,151.46 0 0 1 6.87,15.07 26.4,26.4 0 0 1 -3.53,0.6 c -6.2,27.46 10.34,27.46 10.34,27.46 0,0 61,-9.15 83.74,-32.54 22.74,-23.39 -4.08,-21.44 -4.08,-21.44 z"
     fill="url(#2f4d485d-57ea-446e-b436-4d82ba75f353-318)"
     id="path29"
     style="fill:url(#2f4d485d-57ea-446e-b436-4d82ba75f353-318)" />
  <path
     d="m 438.5,296.5 c 0,0 25.14,6.52 37.68,40.22 a 81.56,81.56 0 0 0 3.45,8 l 7.87,15.78 c 0,0 10.15,19.37 -28.92,20 a 45.36,45.36 0 0 1 -9.1,-0.79 c -13.63,-2.55 -57.71,-10.28 -67,-5.23 a 172.92,172.92 0 0 1 -16,8 l -11,-12 4,-16 c 0,0 13.21,2.48 24.62,-0.07 a 55.86,55.86 0 0 1 8.81,-1.26 l 44.59,-2.65 c 0,0 -35,-25 -35,-34 0,-9 36,-20 36,-20 z"
     fill="#f8bdc5"
     id="path30" />
  <path
     d="m 363.5,357.5 c 0,0 -11,17.94 11.49,21 0,0 -16.49,11 -14.49,26 0,0 -11,11 -14,-6 -3,-17 -1,-47 -1,-47 0,0 18,-3 18,6 z"
     opacity="0.05"
     id="path31" />
  <path
     d="m 438.5,296.5 c 0,0 25.14,6.52 37.68,40.22 a 81.56,81.56 0 0 0 3.45,8 l 7.87,15.78 c 0,0 10.15,19.37 -28.92,20 a 45.36,45.36 0 0 1 -9.1,-0.79 c -13.63,-2.55 -57.71,-10.28 -67,-5.23 a 172.92,172.92 0 0 1 -16,8 l -11,-12 4,-16 c 0,0 13.21,2.48 24.62,-0.07 a 55.86,55.86 0 0 1 8.81,-1.26 l 44.59,-2.65 c 0,0 -35,-25 -35,-34 0,-9 36,-20 36,-20 z"
     opacity="0.05"
     id="path32" />
  <path
     d="m 360.5,372.5 4,-16 c 0,0 13.21,2.48 24.62,-0.07 a 55.86,55.86 0 0 1 8.81,-1.26 l 44.57,-2.67 c 0,0 -35,-25 -35,-34 0,-9 36,-20 36,-20 l 0.27,0.08 a 32.74,32.74 0 0 0 -5.27,-2.08 c 0,0 -36,11 -36,20 0,9 35,34 35,34 l -44.56,2.67 a 55.86,55.86 0 0 0 -8.81,1.26 c -11.41,2.55 -24.62,0.07 -24.62,0.07 l -4,16 11,12 c 0,0 0.74,-0.3 2.26,-1 z"
     opacity="0.05"
     id="path33" />
  <path
     d="m 363.5,357.5 c 0,0 -11,17.94 11.49,21 0,0 -16.49,11 -14.49,26 0,0 -11,11 -14,-6 -3,-17 -1,-47 -1,-47 0,0 18,-3 18,6 z"
     fill="#ffd97b"
     id="path34" />
  <polygon
     points="613.05,555.42 663,549.74 663,562.23 384.85,662.13 333.76,647.38 333.76,633.75 "
     fill="#dfe5ee"
     id="polygon34" />
  <polygon
     points="613.05,555.42 663,549.74 663,562.23 384.85,662.13 333.76,647.38 333.76,633.75 "
     opacity="0.05"
     id="polygon35" />
  <polygon
     points="333.76,633.75 613.05,541.79 661.87,549.74 384.85,648.51 "
     fill="#dfe5ee"
     id="polygon36" />
  <rect
     x="376.89999"
     y="425.98999"
     width="18.17"
     height="211.17"
     fill="#dfe5ee"
     id="rect36" />
  <rect
     x="594.88"
     y="377.17001"
     width="18.17"
     height="185.06"
     fill="#dfe5ee"
     id="rect37" />
  <polygon
     points="447.52,351.54 634.62,315.87 658.46,319.27 658.46,376.04 431.67,426.7 404.84,432.7 338.3,447.56 319,441.88 319,376.04 421.9,356.42 "
     fill="#dfe5ee"
     id="polygon37" />
  <polygon
     points="447.52,351.54 634.62,315.87 658.46,319.27 658.46,376.04 431.67,426.7 404.84,432.7 338.3,447.56 319,441.88 319,376.04 421.9,356.42 "
     opacity="0.05"
     id="polygon38" />
  <polygon
     points="395.07,425.99 395.07,437.15 376.9,441.21 376.9,425.99 "
     opacity="0.05"
     id="polygon39" />
  <polygon
     points="613.05,377.17 613.05,388.46 594.88,392.51 594.88,377.17 "
     opacity="0.05"
     id="polygon40" />
  <polygon
     points="431.91,364.42 457.78,359.27 457.79,359.27 563.5,338.2 589.32,333.05 658.46,319.27 658.46,376.04 566.38,396.61 539.6,402.59 431.67,426.7 404.84,432.7 338.3,447.56 339.44,382.85 "
     fill="#dfe5ee"
     id="polygon41" />
  <polygon
     points="431.67,426.7 404.84,432.7 431.91,364.42 421.9,356.42 447.52,351.54 457.78,359.27 457.79,359.27 "
     fill="#6c63ff"
     id="polygon42"
     style="fill:#ff6600" />
  <polygon
     points="590.61,334.03 590.62,334.03 566.38,396.61 539.6,402.59 564.74,339.18 563.5,338.2 554.74,331.18 580.35,326.3 589.32,333.05 "
     fill="#6c63ff"
     id="polygon43"
     style="fill:#ff6600" />
  <polygon
     points="380.88,633.47 399.04,629.21 399.04,633.47 380.88,637.73 "
     opacity="0.05"
     id="polygon44" />
  <polygon
     points="597.72,558.54 615.88,554.28 615.88,558.54 597.72,562.79 "
     opacity="0.05"
     id="polygon45" />
  <path
     d="m 562.63,146.9 -39.48,23.75 c 0,0 -0.94,0.28 -14,16.85 l -4.69,6 c -9.92,12.75 -30.54,17 -30.54,17 l -13.08,-20.12 -2.76,-24.44 2.9,-9.87 2.3,-7.82 20.12,2.88 8.1,4.37 10,-10 c 0.78,0.21 1.57,0.4 2.36,0.55 A 33.55,33.55 0 0 0 527.45,142 l 6.72,-4 c 0,0 11.88,-6.69 10.83,-12 -0.6,-3 1.79,-15.72 3.93,-26 a 74.16,74.16 0 0 0 0.29,-28.86 l -1.43,-7.62 c 0,0 -9.29,-34.52 11.28,-39.52 20.57,-5 9.85,35.34 9.85,35.34 0,0 -3.94,4.94 2,45.23 5.94,40.29 -8.29,42.33 -8.29,42.33 z"
     fill="#f8bdc5"
     id="path45" />
  <path
     d="m 497.55,141.54 c -1.12,10.58 3.95,12 3.95,12 l 3,12 v 13 l -9,15 h -22 l -19,-9 v -42 l -3,-10 a 38.7,38.7 0 0 0 5,-0.65 c 9.65,-1.93 15.12,-7.29 18.2,-13.11 4.8,-9.11 3.8,-19.28 3.8,-19.28 0,0 40,-11 26,20 -1.86,4.13 -3.28,7.76 -4.35,11 a 53.72,53.72 0 0 0 -2.6,11.04 z"
     fill="#f8bdc5"
     id="path46" />
  <path
     d="m 472.09,229.33 a 2.08,2.08 0 0 1 -0.59,1.17 8.65,8.65 0 0 0 -1.29,2 c -4.68,8.83 -13.71,40 -13.71,40 l -49,-18 -0.71,-0.18 -19.29,-4.82 c 5.47,-3.91 14.61,-27.36 18.33,-37.42 1,-2.81 1.67,-4.58 1.67,-4.58 l 52,5 c 0,0 13.48,11.8 12.59,16.83 z"
     fill="#f8bdc5"
     id="path47" />
  <path
     d="m 451.5,129.5 c 0,0 -15,6 -30,0 -15,-6 -33,3 -33,3 l -46,2 c 0,0 -13,-6 -30,31 -17,37 -23,39 -23,39 0,0 -31,28 -11,35 20,7 31,-27 31,-27 l 11,-21 c 0,0 25,-24 27,-29 2,-5 14,-5 14,-5 l 50,2 -0.31,14.62 15.31,13.38 14,-12 11,-22 z"
     fill="#f8bdc5"
     id="path48" />
  <path
     d="m 504.5,119.5 c -1.86,4.13 -3.28,7.76 -4.35,11 -0.54,0 -1.1,0 -1.65,0 a 29.92,29.92 0 0 1 -23.81,-11.76 c 4.81,-9.07 3.81,-19.24 3.81,-19.24 0,0 40,-11 26,20 z"
     opacity="0.1"
     id="path49" />
  <circle
     cx="498.5"
     cy="99.5"
     r="30"
     fill="#f8bdc5"
     id="circle49" />
  <path
     d="m 472.09,229.33 a 2.08,2.08 0 0 1 -0.59,1.17 8.65,8.65 0 0 0 -1.29,2 c -17.79,-0.78 -56.72,-17.11 -64.38,-20.38 1,-2.81 1.67,-4.58 1.67,-4.58 l 52,5 c 0,0 13.48,11.76 12.59,16.79 z"
     opacity="0.1"
     id="path50" />
  <path
     d="m 509.19,187.5 -4.69,6 c -9.92,12.75 -30.54,17 -30.54,17 L 460.88,190.38 458.12,165.94 459,142 c 2.79,13 10.59,40.12 22.5,42.5 19.91,4 18.48,-24.53 17.5,-36.5 a 16.2,16.2 0 0 1 0.5,-5.5 l 4,3 0.36,0.55 c 9.53,14.8 7.39,32.42 5.33,41.45 z"
     opacity="0.1"
     id="path51" />
  <path
     d="m 456.5,127.5 h -10 c 0,0 10,64 -37,46 0,0 4,15 -5,36 0,0 48,21 67,21 l 6,-6 c 0,0 17,-7 19,-22 l 9,-9 c 0,0 10,-27 -4,-48 l -4,-3 A 16.16,16.16 0 0 0 497,148 c 1,12 2.41,40.48 -17.5,36.5 -25,-5 -23,-57 -23,-57 z"
     fill="#eb6576"
     id="path52"
     style="fill:#ff6600" />
  <path
     d="m 472.09,230.33 a 2.08,2.08 0 0 1 -0.59,1.17 c -4,4 -15,42 -15,42 l -49,-18 -0.71,-0.18 a 70.21,70.21 0 0 1 12,-6.06 c 3.41,-1.32 6.84,-2.72 9.81,-4.06 a 44.92,44.92 0 0 0 6.91,-3.7 c 4.19,-3 20.28,-7.8 36.58,-11.17 z"
     opacity="0.1"
     id="path55" />
  <path
     d="m 585.5,372.5 -15,4 c 0,0 -0.34,-1 -1,-2.74 -3.2,-8.14 -13.86,-32.61 -32,-48.26 -22,-19 -34,-46 -32,-53 2,-7 -44,21 -44,21 0,0 -33.35,20.75 -55.39,20.78 a 23.28,23.28 0 0 1 -9.61,-1.78 c -8.5,-3.83 -11.94,-10.54 -13.09,-17 a 29.72,29.72 0 0 1 6,-23.31 68.38,68.38 0 0 1 29.4,-21.93 c 3.41,-1.32 6.84,-2.72 9.81,-4.06 a 44.92,44.92 0 0 0 6.91,-3.7 c 7,-5 47,-15 66,-15 h 16 c 0,0 13.64,0.8 17.92,19.66 a 78,78 0 0 0 7.1,18.84 l 25.95,49.5 c 0,0 13.32,23.61 25.35,33.61 3.43,2.86 6.76,4.61 9.65,4.39 13,-1 -18,19 -18,19 z"
     fill="#f8bdc5"
     id="path56" />
  <path
     d="M 538.66,84.52 A 10.67,10.67 0 0 0 537.9,73 c -3.36,-4.37 -9.43,-5.37 -14.22,-8.11 -4.35,-2.49 -7.64,-6.46 -11.68,-9.42 -7.64,-5.61 -17.38,-7.31 -26.73,-8.84 -4,-0.66 -8.08,-1.32 -12.1,-0.77 -5.09,0.69 -9.77,3.28 -13.76,6.51 a 12.52,12.52 0 0 0 -3.47,3.88 c -1.48,2.92 -0.83,6.42 -1.09,9.68 -0.64,7.95 -6.78,14.42 -13.55,18.63 -4.16,2.59 -8.74,4.65 -12.2,8.12 -3.46,3.47 -5.55,8.95 -3.37,13.33 1.16,2.32 3.43,4.26 3.44,6.86 a 7.8,7.8 0 0 1 -0.94,3.29 47.87,47.87 0 0 1 -9.54,13.55 c -3.54,3.52 -7.77,6.68 -9.61,11.33 -1.77,4.47 -1,9.57 0.63,14.1 0.76,2.16 1.71,4.32 1.75,6.6 0.11,5.55 -5,9.81 -10.15,11.89 -3.25,1.31 -7,2.31 -8.95,5.2 -1.95,2.89 -1.51,7.09 0.48,10 1.99,2.91 5.2,4.86 8.5,6.19 a 31.16,31.16 0 0 0 19.38,1.58 23.74,23.74 0 0 0 15.15,-11.78 c 3,-5.84 3.2,-13 7.36,-18.1 7.33,-8.91 22.79,-6.66 30.44,-15.31 6.14,-6.95 4.47,-17.48 4,-26.74 a 82.37,82.37 0 0 1 0.64,-15.45 c 0.5,-3.64 1.42,-7.55 4.28,-9.85 2.31,-1.86 5.43,-2.28 8.37,-2.64 6.14,-0.77 13.21,-2.26 16,-7.79 1.16,-2.3 1.51,-5.2 3.6,-6.7 2.89,-2.08 6.94,0 9.46,2.5 2.78,2.77 5.11,6.18 9.34,5.49 3.59,-0.56 7.43,-2.45 9.3,-5.71 z"
     opacity="0.1"
     id="path57" />
  <path
     d="m 537.58,83.44 a 10.67,10.67 0 0 0 -0.77,-11.52 c -3.36,-4.37 -9.43,-5.37 -14.22,-8.11 -4.35,-2.49 -7.64,-6.46 -11.68,-9.42 -7.64,-5.61 -17.38,-7.31 -26.73,-8.84 -4,-0.66 -8.08,-1.32 -12.1,-0.77 -5.09,0.69 -9.77,3.28 -13.76,6.51 a 12.52,12.52 0 0 0 -3.47,3.88 c -1.48,2.92 -0.83,6.42 -1.09,9.68 -0.64,7.95 -6.78,14.42 -13.55,18.63 -4.16,2.59 -8.74,4.65 -12.2,8.12 -3.46,3.47 -5.55,8.95 -3.37,13.33 1.16,2.32 3.43,4.26 3.44,6.86 a 7.8,7.8 0 0 1 -0.94,3.29 47.87,47.87 0 0 1 -9.54,13.55 c -3.54,3.52 -7.77,6.68 -9.61,11.33 -1.77,4.47 -1,9.57 0.63,14.1 0.76,2.16 1.71,4.32 1.75,6.6 0.11,5.55 -5,9.81 -10.15,11.89 -3.25,1.31 -7,2.31 -8.95,5.2 -1.95,2.89 -1.51,7.09 0.48,10 1.99,2.91 5.2,4.86 8.5,6.19 a 31.16,31.16 0 0 0 19.38,1.58 23.74,23.74 0 0 0 15.15,-11.78 c 3,-5.84 3.2,-13 7.36,-18.1 7.33,-8.91 22.79,-6.66 30.44,-15.31 6.14,-6.95 4.47,-17.48 4,-26.74 a 82.37,82.37 0 0 1 0.64,-15.45 c 0.5,-3.64 1.42,-7.55 4.28,-9.85 2.31,-1.86 5.43,-2.28 8.37,-2.64 6.14,-0.77 13.21,-2.26 16,-7.79 1.16,-2.3 1.51,-5.2 3.6,-6.7 2.89,-2.08 6.94,0 9.46,2.5 2.78,2.77 5.11,6.18 9.34,5.49 3.59,-0.57 7.44,-2.46 9.31,-5.71 z"
     fill="#6e464e"
     id="path58" />
  <path
     d="m 434,202 c 0,0 11,9 25,8"
     opacity="0.1"
     id="path59"
     style="fill:#aa4400" />
  <path
     d="m 605.92,353.68 c -5.74,5.64 -18.42,13.82 -18.42,13.82 l -15,4 c 0,0 -11,-32 -33,-51 -22,-19 -34,-46 -32,-53 2,-7 -44,21 -44,21 0,0 -33.35,20.75 -55.39,20.78 a 23.28,23.28 0 0 1 -9.61,-1.78 c -8.5,-3.83 -11.94,-10.54 -13.09,-17 a 28.68,28.68 0 0 1 0.82,-13.31 29.19,29.19 0 0 0 -2.82,18.31 c 1.15,6.46 4.59,13.17 13.09,17 a 23.28,23.28 0 0 0 9.61,1.78 c 22,0 55.39,-20.78 55.39,-20.78 0,0 46,-28 44,-21 -2,7 10,34 32,53 22,19 33,51 33,51 l 15,-4 c 0,0 25.89,-16.71 20.42,-18.82 z"
     opacity="0.05"
     id="path60" />
  <path
     d="m 429.5,246.5 -1.7,0.79 a 61.63,61.63 0 0 0 -28.9,27.46 c -13.4,26.08 4.31,37.83 7.21,39.53 a 23.28,23.28 0 0 1 -9.61,-1.78 c -8.5,-3.83 -11.94,-10.54 -13.09,-17 a 29.72,29.72 0 0 1 6,-23.31 68.38,68.38 0 0 1 29.4,-21.93 c 3.41,-1.32 6.84,-2.72 9.81,-4.06 z"
     opacity="0.1"
     id="path61" />
  <path
     d="m 427.5,246.5 c 0,0 -21,-7.46 -35,-3.73 0,0 -9,7.73 -16,14.73 -5.7,5.7 -20,64 28,57 0,0 -22.16,-11.42 -7.6,-39.75 a 61.62,61.62 0 0 1 28.9,-27.46 z"
     fill="#5e52ad"
     id="path62"
     style="fill:#ff6600" />
  <path
     d="m 585.5,372.5 -15,4 c 0,0 -0.34,-1 -1,-2.74 3.49,-0.92 8,-3 8,-7.26 0,0 11.45,-10.69 16.35,-17.39 3.43,2.86 6.76,4.61 9.65,4.39 13,-1 -18,19 -18,19 z"
     opacity="0.1"
     id="path63" />
  <path
     d="m 578.5,367.5 c 0,0 15,-14 18,-20 0,0 29,17 57,2 0,0 26,-2 4,21 -22,23 -81,32 -81,32 0,0 -16,0 -10,-27 0,0 12,-1 12,-8 z"
     fill="#ffd97b"
     id="path64" />
  <polygon
     points="947.05,625.42 997,619.74 997,632.23 718.85,732.13 667.76,717.38 667.76,703.75 "
     fill="#dfe5ee"
     id="polygon64" />
  <polygon
     points="947.05,625.42 997,619.74 997,632.23 718.85,732.13 667.76,717.38 667.76,703.75 "
     opacity="0.05"
     id="polygon65" />
  <polygon
     points="667.76,703.75 947.05,611.79 995.87,619.74 718.85,718.51 "
     fill="#dfe5ee"
     id="polygon66" />
  <rect
     x="710.90002"
     y="495.98999"
     width="18.17"
     height="211.17"
     fill="#dfe5ee"
     id="rect66" />
  <rect
     x="928.88"
     y="447.17001"
     width="18.17"
     height="185.06"
     fill="#dfe5ee"
     id="rect67" />
  <polygon
     points="781.52,421.54 968.62,385.87 992.46,389.27 992.46,446.04 765.67,496.7 738.84,502.7 672.3,517.56 653,511.88 653,446.04 755.9,426.42 "
     fill="#dfe5ee"
     id="polygon67" />
  <polygon
     points="781.52,421.54 968.62,385.87 992.46,389.27 992.46,446.04 765.67,496.7 738.84,502.7 672.3,517.56 653,511.88 653,446.04 755.9,426.42 "
     opacity="0.05"
     id="polygon68" />
  <polygon
     points="729.07,495.99 729.07,507.15 710.9,511.21 710.9,495.99 "
     opacity="0.05"
     id="polygon69" />
  <polygon
     points="947.05,447.17 947.05,458.46 928.88,462.51 928.88,447.17 "
     opacity="0.05"
     id="polygon70" />
  <polygon
     points="765.91,434.42 791.78,429.27 791.79,429.27 897.5,408.2 923.32,403.05 992.46,389.27 992.46,446.04 900.38,466.61 873.6,472.59 765.67,496.7 738.84,502.7 672.3,517.56 673.44,452.85 "
     fill="#dfe5ee"
     id="polygon71" />
  <polygon
     points="765.67,496.7 738.84,502.7 765.91,434.42 755.9,426.42 781.52,421.54 791.78,429.27 791.79,429.27 "
     fill="#6c63ff"
     id="polygon72"
     style="fill:#ff6600" />
  <polygon
     points="924.61,404.03 924.62,404.03 900.38,466.61 873.6,472.59 898.74,409.18 897.5,408.2 888.74,401.18 914.35,396.3 923.32,403.05 "
     fill="#6c63ff"
     id="polygon73"
     style="fill:#ff6600" />
  <polygon
     points="714.88,703.47 733.04,699.21 733.04,703.47 714.88,707.73 "
     opacity="0.05"
     id="polygon74" />
  <polygon
     points="931.72,628.54 949.88,624.28 949.88,628.54 931.72,632.79 "
     opacity="0.05"
     id="polygon75" />
</svg>
