<?xml version="1.0" encoding="UTF-8" standalone="no"?>
<svg
   data-name="Layer 1"
   width="899.23822"
   height="634.83795"
   viewBox="0 0 899.23822 634.83795"
   version="1.1"
   id="svg38"
   xmlns="http://www.w3.org/2000/svg"
   xmlns:svg="http://www.w3.org/2000/svg">
  <defs
     id="defs38" />
  <path
     d="M 100.33398,507.85989 A 81.05681,81.05681 0 0 1 47.65346,488.40642 C 42.75602,484.21425 37.53776,476.9261 32.14404,466.7459 a 49.53623,49.53623 0 0 1 -1.57108,-42.76507 56.84211,56.84211 0 0 1 -9.38678,7.69937 l -1.71613,1.14183 -0.0992,-2.05778 c -0.0651,-1.33843 -0.098,-2.67236 -0.098,-3.9646 0,-7.61572 5.76007,-15.34359 3.10357,-22.383 -11.19647,-29.66913 -46.70887,-59.1543 4.75943,-105.0715 4.76113,-4.24762 -1.599,-12.74018 -1.599,-19.16674 0,-62.98182 68.43238,-157.45982 114.24336,-114.22108 26.74026,25.23883 82.45206,43.16815 108.46374,78.27408 l 0.34447,1.04016 -1.01509,0.41065 a 61.2229,61.2229 0 0 1 -16.2668,4.32653 77.56881,77.56881 0 0 0 18.13813,1.51954 l 0.94355,-0.033 0.22983,0.91707 a 114.74316,114.74316 0 0 1 3.40579,27.766 l -0.004,1.01171 a 50.592,50.592 0 0 0 16.71266,37.72313 81.24433,81.24433 0 0 1 26.50587,59.95092 c 0,13.35194 -9.0747,30.87859 -16.6876,43.23065 a 24.44539,24.44539 0 0 1 -17.94548,11.4945 23.87308,23.87308 0 0 1 -19.26673,-6.22405 78.949,78.949 0 0 0 13.92257,19.71146 l 1.03875,1.0703 -1.2897,0.75146 a 80.99761,80.99761 0 0 1 -40.83178,11.02686 l -0.84018,-0.002 c -21.78164,0 -42.45666,8.43844 -56.7237,23.15219 a 81.67332,81.67332 0 0 1 -58.28036,24.78466 z"
     fill="#e6e6e6"
     id="path1" />
  <path
     d="m 71.74918,634.83796 a 1.45772,1.45772 0 0 1 -1.44142,-1.25232 c -0.0619,-0.43516 -6.12837,-44.18711 -0.68,-102.33528 5.03158,-53.70122 21.19,-131.04988 69.59439,-194.5751 a 1.45784,1.45784 0 1 1 2.31909,1.7672 C 93.55495,401.4191 77.52677,478.20022 72.53066,531.52228 c -5.41668,57.80982 0.60219,101.22057 0.66365,101.6524 a 1.459,1.459 0 0 1 -1.44511,1.66328 z"
     fill="#3f3d56"
     id="path2"
     style="fill:#9b9ab9;fill-opacity:1" />
  <path
     d="m 115.94639,424.67322 a 1.45779,1.45779 0 0 1 -0.85822,-2.637 200.92042,200.92042 0 0 1 44.35616,-22.57972 c 24.47209,-8.95938 61.68554,-17.08167 99.99613,-4.88875 a 1.4576405,1.4576405 0 1 1 -0.88407,2.778 c -37.5257,-11.94236 -74.06459,-3.95437 -98.10958,4.84888 a 197.61954,197.61954 0 0 0 -43.64458,22.20009 1.45206,1.45206 0 0 1 -0.85584,0.2785 z"
     fill="#3f3d56"
     id="path3"
     style="fill:#9b9ab9;fill-opacity:1" />
  <path
     d="m 702.33398,507.85989 a 81.05681,81.05681 0 0 1 -52.68052,-19.45347 c -4.89744,-4.19217 -10.1157,-11.48032 -15.50942,-21.66052 a 49.53623,49.53623 0 0 1 -1.57108,-42.76507 56.84211,56.84211 0 0 1 -9.38678,7.69937 l -1.71613,1.14183 -0.0991,-2.05778 c -0.0651,-1.33843 -0.098,-2.67236 -0.098,-3.9646 0,-7.61572 5.76007,-15.34359 3.10357,-22.383 -11.19647,-29.66913 -46.70887,-59.1543 4.75943,-105.0715 4.76113,-4.24762 -1.599,-12.74018 -1.599,-19.16674 0,-62.98182 89.01481,-171.94239 114.24333,-114.22108 31.11316,71.185 84.7168,63.57089 108.46378,78.27408 l 0.3445,1.04016 -1.0151,0.41065 a 61.2229,61.2229 0 0 1 -16.26683,4.32653 77.56881,77.56881 0 0 0 18.13813,1.51954 l 0.9435,-0.033 0.2299,0.91707 a 114.74316,114.74316 0 0 1 3.4058,27.766 v 1.01171 a 50.592,50.592 0 0 0 16.7127,37.72313 81.24433,81.24433 0 0 1 26.5059,59.95092 c 0,13.35194 -9.0747,30.87859 -16.6876,43.23065 a 24.44539,24.44539 0 0 1 -17.9455,11.49441 23.87308,23.87308 0 0 1 -19.2667,-6.22405 78.949,78.949 0 0 0 13.9225,19.71146 l 1.0388,1.0703 -1.2897,0.75146 a 80.99761,80.99761 0 0 1 -40.83178,11.02686 l -0.84018,-0.002 c -21.78164,0 -42.45666,8.43844 -56.7237,23.15219 a 81.67332,81.67332 0 0 1 -58.28037,24.78475 z"
     fill="#e6e6e6"
     id="path4" />
  <path
     d="m 673.74918,634.83796 a 1.45772,1.45772 0 0 1 -1.44142,-1.25232 c -0.0619,-0.43516 -6.12837,-44.18711 -0.68,-102.33528 5.03158,-53.70122 21.19,-131.04988 69.59439,-194.5751 a 1.45784,1.45784 0 1 1 2.31909,1.7672 c -47.98629,62.97664 -64.01447,139.75776 -69.01058,193.07982 -5.41668,57.80982 0.60219,101.22057 0.66365,101.6524 a 1.459,1.459 0 0 1 -1.44511,1.66328 z"
     fill="#3f3d56"
     id="path5"
     style="fill:#9b9ab9;fill-opacity:1" />
  <path
     d="m 713.94639,427.67322 a 1.45779,1.45779 0 0 1 -0.85822,-2.637 200.92042,200.92042 0 0 1 44.35616,-22.57972 c 24.47209,-8.95938 61.68554,-17.08167 99.99618,-4.88875 a 1.4576451,1.4576451 0 1 1 -0.8841,2.778 c -37.52572,-11.94236 -74.06461,-3.95437 -98.1096,4.84888 a 197.61954,197.61954 0 0 0 -43.64458,22.20009 1.45206,1.45206 0 0 1 -0.85584,0.2785 z"
     fill="#3f3d56"
     id="path6"
     style="fill:#9b9ab9;fill-opacity:1" />
  <path
     d="m 647.22592,261.49757 a 1.4578,1.4578 0 0 1 2.56839,-1.04589 200.92079,200.92079 0 0 1 25.7154,42.61491 c 10.69847,23.76333 21.47959,60.29523 12.07727,99.38443 a 1.45763,1.45763 0 1 1 -2.83443,-0.68172 c 9.20894,-38.2883 -1.38966,-74.15706 -11.90165,-97.50566 a 197.62,197.62 0 0 0 -25.28551,-41.93252 1.452,1.452 0 0 1 -0.33947,-0.83355 z"
     fill="#3f3d56"
     id="path7"
     style="fill:#9b9ab9;fill-opacity:1" />
  <path
     d="m 48.22592,252.49757 a 1.4578,1.4578 0 0 1 2.56839,-1.04589 200.92079,200.92079 0 0 1 25.7154,42.61491 c 10.69847,23.76333 21.47959,60.29523 12.07727,99.38443 A 1.45763,1.45763 0 1 1 85.75255,392.7693 C 94.96149,354.481 84.36289,318.61224 73.8509,295.26364 a 197.62,197.62 0 0 0 -25.28551,-41.93252 1.452,1.452 0 0 1 -0.33947,-0.83355 z"
     fill="#3f3d56"
     id="path8"
     style="fill:#9b9ab9;fill-opacity:1" />
  <path
     d="m 450.59993,105.12732 a 15.66632,15.66632 0 0 0 -25.18672,3.85184 c -23.71877,16.5076 -38.75633,38.62642 -44.42962,66.79815 l -42.07857,-38.178 a 15.29692,15.29692 0 1 0 -12.6402,12.75913 c 7.72456,13.11219 43.55463,71.09678 65.66873,57.82137 18.588,-11.1586 51.59836,-66.44554 61.29637,-84.78156 a 15.668,15.668 0 0 0 -2.62999,-18.27093 z"
     fill="#ffb6b6"
     id="path9" />
  <path
     d="m 451.94541,130.44637 c 2.11309,-5.72719 3.80612,-12.04017 1.97385,-17.86323 -2.01515,-6.404 -8.20632,-10.9895 -14.8266,-12.1049 -6.62028,-1.1154 -13.50053,0.88076 -19.19261,4.44058 -5.692,3.55982 -10.32124,8.58765 -14.4339,13.89406 l 1.10144,-1.7533 q -8.03111,10.52166 -16.06217,21.04331 20.38409,14.162 40.76819,28.3238 a 124.35762,124.35762 0 0 0 20.6718,-35.98032 z"
     fill="#6c63ff"
     id="path10"
     style="fill:#ff6600" />
  <polygon
     points="393.337,613.616 373.873,613.615 364.613,538.535 393.341,538.536 "
     fill="#ffb6b6"
     id="polygon10" />
  <path
     d="m 394.02292,633.92159 -59.85684,-0.002 v -0.757 a 23.29923,23.29923 0 0 1 23.29794,-23.29779 h 10e-4 l 10.93361,-8.29481 20.39972,8.29607 5.22511,1.8e-4 z"
     fill="#2f2e41"
     id="path11"
     style="fill:#aeadc4;fill-opacity:1" />
  <polygon
     points="678.864,337.19 687.034,354.856 622.78,394.782 610.72,368.707 "
     fill="#ffb6b6"
     id="polygon11" />
  <path
     d="m 697.00492,328.04212 25.12831,54.32687 -0.687,0.31781 a 23.29923,23.29923 0 0 1 -30.92627,-11.36387 l -6e-4,-10e-4 -12.11878,-6.44082 -1.03514,-21.99776 -2.19355,-4.74238 z"
     fill="#2f2e41"
     id="path12"
     style="fill:#6c6895;fill-opacity:1" />
  <ellipse
     cx="226.72346"
     cy="102.16413"
     rx="7.5566602"
     ry="5.2568102"
     transform="rotate(-16.70778)"
     fill="#e6e6e6"
     id="ellipse12" />
  <ellipse
     cx="274.69183"
     cy="113.99194"
     rx="7.5566602"
     ry="5.2568002"
     transform="rotate(-16.70778)"
     fill="#3f3d56"
     id="ellipse13" />
  <ellipse
     cx="207.66618"
     cy="139.61807"
     rx="7.5566339"
     ry="5.2567921"
     transform="rotate(-16.707805)"
     fill="#ff6584"
     id="ellipse14"
     style="stroke-width:0.999997" />
  <ellipse
     cx="207.45575"
     cy="125.07936"
     rx="3.3223"
     ry="4.7758098"
     transform="rotate(-8.86277)"
     fill="#e6e6e6"
     id="ellipse15" />
  <ellipse
     cx="199.98058"
     cy="155.39531"
     rx="3.3223"
     ry="4.7758098"
     transform="rotate(-8.86277)"
     fill="#3f3d56"
     id="ellipse16" />
  <ellipse
     cx="256.72839"
     cy="102.37077"
     rx="3.3223"
     ry="4.7758098"
     transform="rotate(-8.8628627)"
     fill="#e6e6e6"
     id="ellipse17" />
  <ellipse
     cx="233.0569"
     cy="90.327644"
     rx="3.3223"
     ry="4.7758098"
     transform="rotate(-8.86277)"
     fill="#ff6584"
     id="ellipse18" />
  <ellipse
     cx="266.29901"
     cy="68.650635"
     rx="3.3223"
     ry="4.7758098"
     transform="rotate(-8.86277)"
     fill="#3f3d56"
     id="ellipse19" />
  <ellipse
     cx="468.77396"
     cy="596.37427"
     rx="7.5566602"
     ry="5.2568102"
     transform="rotate(-8.27826)"
     fill="#e6e6e6"
     id="ellipse20" />
  <ellipse
     cx="420.80554"
     cy="584.54651"
     rx="7.5566602"
     ry="5.2568002"
     transform="rotate(-8.27826)"
     fill="#3f3d56"
     id="ellipse21"
     style="fill:#6c6895;fill-opacity:1" />
  <ellipse
     cx="487.82986"
     cy="558.91956"
     rx="7.5566602"
     ry="5.2568102"
     transform="rotate(-8.27826)"
     fill="#ff6584"
     id="ellipse22" />
  <ellipse
     cx="576.87866"
     cy="471.99036"
     rx="3.3223"
     ry="4.7758098"
     transform="rotate(-0.43325)"
     fill="#e6e6e6"
     id="ellipse23" />
  <ellipse
     cx="584.35382"
     cy="441.67438"
     rx="3.3223"
     ry="4.7758098"
     transform="rotate(-0.43325)"
     fill="#3f3d56"
     id="ellipse24"
     style="fill:#6c6895;fill-opacity:1" />
  <ellipse
     cx="527.60602"
     cy="494.6987"
     rx="3.3223"
     ry="4.7758098"
     transform="rotate(-0.43325)"
     fill="#e6e6e6"
     id="ellipse25" />
  <ellipse
     cx="551.27625"
     cy="506.74139"
     rx="3.3222952"
     ry="4.7758031"
     transform="rotate(-0.43316084)"
     fill="#ff6584"
     id="ellipse26"
     style="stroke-width:0.999999" />
  <ellipse
     cx="518.03534"
     cy="528.41907"
     rx="3.3223"
     ry="4.7758098"
     transform="rotate(-0.43325)"
     fill="#3f3d56"
     id="ellipse27"
     style="fill:#6c6895;fill-opacity:1" />
  <path
     d="m 423.94978,274.25571 -11.82986,14.48709 c 0.26886,3.92365 -0.96753,6.16556 -4.64154,5.68415 0,0 0.54833,7.18371 -3.95307,4.841 -4.5014,-2.34271 -3.39758,4.16075 -3.39758,4.16075 l -3.36362,4.1192 c 0,0 -0.10525,7.00572 -3.42273,4.19156 -3.31748,-2.81416 -4.3815,5.36568 -4.3815,5.36568 l -4.2215,5.16975 -43.03827,52.70564 24.12609,193.7144 28.19768,-1.76963 6.87341,-169.82508 c 1.753,-4.68274 4.41407,-7.1358 8.48224,-6.1336 1.82215,0.399 2.88794,-0.69666 3.55854,-2.57331 l 3.24169,-2.34409 42.4331,-30.68411 56.04956,96.05837 139.36149,-73.49818 -13,-25 -97.76789,32.34572 -2.56377,-30.58651 c -3.34064,-1.94531 -2.77924,-4.27014 -0.56623,-6.75567 l -0.63977,-7.63214 c 3.31476,-2.03406 1.67182,-5.25831 -0.72619,-8.66373 -5.007,-3.6973 -4.51618,-7.90866 -1.03931,-12.39926 0,0 4.39163,-57.45177 -16.89838,-65.37931 -21.29001,-7.92754 -96.87259,20.40131 -96.87259,20.40131 z"
     fill="#2f2e41"
     id="path27"
     style="fill:#8b89ad;fill-opacity:1" />
  <path
     d="m 465.74344,85.67413 -26.71953,1.25117 -14,20 v 0 c -9.74692,21.4432 -12.42298,45.43027 -7.64141,68.49431 l 9.64142,46.50566 -2.5545,34.4859 c -6.84406,5.52139 -7.41327,12.01257 -1.4455,19.5141 -7.34729,25.34985 55.17181,13.94088 113,5 0.19983,-12.078 -2.93,-24.37583 -11,-37 l 7.7809,-100.75685 -28.78091,-34.24312 -22.02782,-14.507 z"
     fill="#6c63ff"
     id="path28"
     style="fill:#ff6600" />
  <path
     d="m 490.74811,113.30942 a 15.66638,15.66638 0 0 0 -2.06671,25.39563 c 3.22425,20.91583 23.24835,41.0647 54.73694,58.65021 l -46.86081,32.12832 a 15.29692,15.29692 0 1 0 9.49641,15.24429 c 14.54126,-4.48887 79.23116,-25.965 71.41952,-50.54646 -6.566,-20.66191 -52.7389,-65.54394 -68.34078,-79.213 a 15.668,15.668 0 0 0 -18.38457,-1.65899 z"
     fill="#ffb6b6"
     id="path29" />
  <circle
     cx="445.70108"
     cy="45.61821"
     r="34.984249"
     fill="#ffb6b6"
     id="circle30" />
  <path
     d="m 482.05016,23.3537 c -1.6579,-2.152 -3.55549,-4.12848 -4.999,-6.42987 -1.38971,-2.21576 -2.33874,-4.70294 -3.90558,-6.79724 -4.63391,-6.19415 -13.24981,-7.46081 -20.947,-8.23224 Q 444.575,1.13035 436.95133,0.36628 a 35.25348,35.25348 0 0 0 -8.61981,-0.15564 17.892,17.892 0 0 0 -13.00214,9.18762 c -1.48919,2.81769 -2.484,6.32941 -5.38739,7.64361 a 34.81,34.81 0 0 1 -4.17285,1.03742 c -1.37183,0.42547 -2.75061,1.52148 -2.69946,2.95685 0.0948,2.65789 4.78448,4.17926 3.64026,6.58014 -1.0105,2.12024 -5.05658,0.61584 -5.63068,3.81659 a 3.3635,3.3635 0 0 0 0.6723,2.63562 c 1.30487,1.6715 3.44647,2.10589 5.45349,2.47473 l -3.56463,5.0979 a 52.76474,52.76474 0 0 0 36.26471,1.40777 11.15481,11.15481 0 0 1 14.59875,11.78846 l -0.0163,0.14489 a 3.12681,3.12681 0 0 0 1.25512,2.95374 c 1.80921,1.22931 3.64643,-0.49542 4.46656,-2.202 0.83428,-1.7359 1.38812,-3.84192 3.40686,-4.45025 a 3.92391,3.92391 0 0 1 4.34533,1.82043 c 1.56977,2.46387 0.92523,5.40448 0.022,8.01209 a 43.26118,43.26118 0 0 1 -9.93738,16.05255 c 7.60089,-0.50269 5.37689,0.25915 12.97772,-0.24353 l 2.11957,0.32989 c 5.08612,-3.17309 7.60681,-9.2102 8.94787,-15.0531 3.04217,-13.25394 8.25805,-28.07584 -0.0411,-38.84836 z"
     fill="#2f2e41"
     id="path31"
     style="fill:#686690;fill-opacity:1" />
  <path
     d="m 511.7119,110.44556 c -5.05176,-3.42718 -10.77307,-6.58734 -16.86578,-6.20776 -6.70057,0.41754 -12.63923,5.32568 -15.3125,11.48407 -2.67327,6.15839 -2.38862,13.31671 -0.3006,19.69732 2.08802,6.38061 5.85638,12.08216 10.01928,17.34925 l -1.43731,-1.49042 q 8.284,10.32377 16.56793,20.64746 18.64453,-16.38455 37.28894,-32.76917 A 124.35773,124.35773 0 0 0 511.7119,110.44556 Z"
     fill="#6c63ff"
     id="path32"
     style="fill:#ff6600" />
  <path
     d="m 444.73111,632.0821 0.0152,-0.697 a 80.52866,80.52866 0 0 1 30.11215,-60.64309 78.13219,78.13219 0 0 1 16.78623,-10.11535 l 0.572,-0.25475 0.0976,0.61814 c 1.16153,7.3802 3.0009,14.91288 3.85784,18.25612 l 5.74416,-22.41411 0.63822,-0.18437 a 15.27245,15.27245 0 0 1 16.303,5.20878 15.53413,15.53413 0 0 1 1.61174,17.33178 c -1.33892,2.49455 -2.655,5.09732 -3.9282,7.61425 -4.37386,8.64929 -8.89655,17.59309 -15.48708,24.54163 a 48.67532,48.67532 0 0 1 -39.25924,14.64528 z"
     fill="#f2f2f2"
     id="path33" />
  <path
     d="m 525.89891,634.10452 -271.75,0.30733 c -1.58757,0 -1.58757,-2.38136 0,-2.38136 l 271.75,-0.30734 c 1.58758,0 1.58758,2.38137 0,2.38137 z"
     fill="#cacaca"
     id="path34"
     style="fill:#ff6600" />
  <path
     d="m 779.89891,634.10452 -156.75,0.30733 a 1.19068,1.19068 0 1 1 0,-2.38136 l 156.75,-0.30734 a 1.190685,1.190685 0 1 1 0,2.38137 z"
     fill="#cacaca"
     id="path35" />
  <path
     d="m 156.89891,634.10452 -146.75,0.30733 a 1.19068,1.19068 0 1 1 0,-2.38136 l 146.75,-0.30734 a 1.19069,1.19069 0 1 1 0,2.38137 z"
     fill="#cacaca"
     id="path36" />
  <path
     d="m 315.84774,100.26844 a 4.17218,4.17218 0 0 0 -4.15852,4.514 c 4.26152,20.08327 6.13577,39.23465 4.6924,57.091 a 4.19621,4.19621 0 0 0 4.15847,3.83056 h 26.91954 a 4.19623,4.19623 0 0 0 4.15849,-3.83056 c -2.17468,-18.01111 0.12485,-37.24186 4.69232,-57.091 a 4.17209,4.17209 0 0 0 -4.15847,-4.514 z"
     fill="#6c63ff"
     id="path37" />
  <path
     d="m 358.46594,107.87769 -2.00836,-9.5399 a 3.86387,3.86387 0 0 0 -3.781,-3.0679 h -12.5376 a 1.38437,1.38437 0 0 0 -0.23552,-0.45913 l -1.39314,-1.74143 a 1.40132,1.40132 0 0 0 -1.09426,-0.52592 h -7.74122 a 1.40134,1.40134 0 0 0 -1.09427,0.52592 l -1.39313,1.74143 a 1.38421,1.38421 0 0 0 -0.23553,0.45913 h -11.62875 a 3.86387,3.86387 0 0 0 -3.781,3.0679 l -2.00836,9.5399 a 3.86385,3.86385 0 0 0 3.78092,4.6599 q 19.69944,6.24231 41.37025,0 a 3.86385,3.86385 0 0 0 3.78097,-4.6599 z"
     fill="#3f3d56"
     id="path38"
     style="fill:#b3b1c7;fill-opacity:1" />
</svg>
